<svg version="1.1" id="Capa_1" xmlns="http://www.w3.org/2000/svg" xmlns:xlink="http://www.w3.org/1999/xlink" x="0px" y="0px"
	 viewBox="0 0 394.69 394.69" style="enable-background:new 0 0 394.69 394.69;" xml:space="preserve">
<path d="M4.272 12.616V9.952H14.544V12.616H4.272ZM0.408 16L7.704 0.472H11.16L18.528 16H15.048L8.664 2.008H10.2L3.864 16H0.408ZM25.2255 16.264C24.0415 16.264 22.9615 16.008 21.9855 15.496C21.0255 14.968 20.2575 14.24 19.6815 13.312C19.1215 12.368 18.8415 11.28 18.8415 10.048C18.8415 8.784 19.1295 7.688 19.7055 6.76C20.2815 5.832 21.0575 5.112 22.0335 4.6C23.0255 4.072 24.1455 3.808 25.3935 3.808C26.7695 3.808 27.8735 4.088 28.7055 4.648C29.5535 5.192 30.1695 5.936 30.5535 6.88C30.9375 7.824 31.1295 8.88 31.1295 10.048C31.1295 10.752 31.0175 11.472 30.7935 12.208C30.5695 12.928 30.2255 13.6 29.7615 14.224C29.2975 14.832 28.6895 15.328 27.9375 15.712C27.1855 16.08 26.2815 16.264 25.2255 16.264ZM26.2335 13.864C27.1775 13.864 27.9935 13.704 28.6815 13.384C29.3695 13.064 29.8975 12.616 30.2655 12.04C30.6335 11.464 30.8175 10.8 30.8175 10.048C30.8175 9.232 30.6255 8.544 30.2415 7.984C29.8735 7.408 29.3455 6.976 28.6575 6.688C27.9855 6.384 27.1775 6.232 26.2335 6.232C24.9055 6.232 23.8735 6.584 23.1375 7.288C22.4015 7.976 22.0335 8.896 22.0335 10.048C22.0335 10.816 22.2095 11.488 22.5615 12.064C22.9135 12.624 23.4015 13.064 24.0255 13.384C24.6655 13.704 25.4015 13.864 26.2335 13.864ZM30.8175 4.072H33.9375V16H31.0335C31.0335 16 31.0095 15.848 30.9615 15.544C30.9295 15.224 30.8975 14.824 30.8655 14.344C30.8335 13.864 30.8175 13.392 30.8175 12.928V4.072Z"></path>
</svg>
