<svg width="13" height="13" viewBox="0 0 13 13" fill="none" xmlns="http://www.w3.org/2000/svg">
<path d="M11.4903 11.2551H0.789784C0.63212 11.2551 0.480914 11.321 0.369429 11.4384C0.257944 11.5557 0.195313 11.7149 0.195312 11.8808C0.195313 12.0468 0.257944 12.206 0.369429 12.3233C0.480914 12.4407 0.63212 12.5066 0.789784 12.5066H11.4903C11.6479 12.5066 11.7991 12.4407 11.9106 12.3233C12.0221 12.206 12.0847 12.0468 12.0847 11.8808C12.0847 11.7149 12.0221 11.5557 11.9106 11.4384C11.7991 11.321 11.6479 11.2551 11.4903 11.2551Z" fill="#252525"/>
<path d="M6.14009 0.617188C5.98243 0.617188 5.83122 0.683116 5.71974 0.800469C5.60825 0.917822 5.54562 1.07699 5.54562 1.24295V7.86976L3.58981 5.80475C3.47787 5.68692 3.32605 5.62072 3.16774 5.62072C3.00943 5.62072 2.8576 5.68692 2.74566 5.80475C2.63372 5.92258 2.57083 6.0824 2.57083 6.24904C2.57083 6.41568 2.63372 6.5755 2.74566 6.69333L5.71802 9.82214C5.77328 9.88079 5.83903 9.92734 5.91147 9.95911C5.98391 9.99088 6.06162 10.0072 6.14009 10.0072C6.21857 10.0072 6.29627 9.99088 6.36871 9.95911C6.44115 9.92734 6.5069 9.88079 6.56217 9.82214L9.53452 6.69333C9.58995 6.63499 9.63392 6.56572 9.66392 6.48949C9.69391 6.41326 9.70935 6.33155 9.70935 6.24904C9.70935 6.16653 9.69391 6.08482 9.66392 6.00859C9.63392 5.93236 9.58995 5.8631 9.53452 5.80475C9.4791 5.74641 9.41329 5.70012 9.34087 5.66855C9.26845 5.63697 9.19084 5.62072 9.11245 5.62072C9.03406 5.62072 8.95644 5.63697 8.88402 5.66855C8.8116 5.70012 8.7458 5.74641 8.69037 5.80475L6.73456 7.86976V1.24295C6.73456 1.07699 6.67193 0.917822 6.56045 0.800469C6.44896 0.683116 6.29776 0.617188 6.14009 0.617188Z" fill="#252525"/>
</svg>
