<svg width="9" height="5" viewBox="0 0 9 5" fill="none" xmlns="http://www.w3.org/2000/svg">
<path d="M4.5166 4.02284C4.42337 4.02221 4.3341 3.9939 4.26763 3.94387L0.746071 1.24877C0.681923 1.19794 0.646428 1.12986 0.64723 1.05919C0.648032 0.988528 0.685068 0.920931 0.750361 0.870962C0.815653 0.820992 0.903978 0.792648 0.996312 0.792034C1.08865 0.79142 1.1776 0.818585 1.24402 0.867679L4.5166 3.37224L7.78918 0.867679C7.82166 0.841938 7.86052 0.821406 7.90349 0.807281C7.94645 0.793156 7.99266 0.785722 8.03942 0.785411C8.08618 0.7851 8.13255 0.791919 8.17583 0.80547C8.21911 0.819021 8.25843 0.839033 8.29149 0.864338C8.32456 0.889643 8.35071 0.919735 8.36841 0.952856C8.38612 0.985978 8.39503 1.02147 8.39462 1.05725C8.39422 1.09304 8.3845 1.1284 8.36605 1.16128C8.34759 1.19417 8.32076 1.2239 8.28713 1.24877L4.76557 3.94387C4.6991 3.9939 4.60983 4.02221 4.5166 4.02284Z" fill="black"/>
</svg>
