<svg width="8" height="4" viewBox="0 0 8 4" fill="none" xmlns="http://www.w3.org/2000/svg">
<path d="M3.86938 3.92713C3.77615 3.92651 3.68688 3.8982 3.62041 3.84817L0.0988542 1.15306C0.0347062 1.10223 -0.000789045 1.03415 1.33124e-05 0.963489C0.00081567 0.892825 0.0378514 0.825228 0.103144 0.775259C0.168436 0.725289 0.256761 0.696945 0.349095 0.696331C0.441429 0.695717 0.530385 0.722882 0.596802 0.771976L3.86938 3.27654L7.14196 0.771976C7.17445 0.746235 7.21331 0.725703 7.25627 0.711578C7.29923 0.697453 7.34544 0.690018 7.3922 0.689707C7.43896 0.689396 7.48533 0.696215 7.52861 0.709767C7.57189 0.723318 7.61121 0.74333 7.64427 0.768635C7.67734 0.79394 7.70349 0.824031 7.7212 0.857153C7.7389 0.890275 7.74781 0.925764 7.74741 0.96155C7.747 0.997335 7.73728 1.0327 7.71883 1.06558C7.70037 1.09846 7.67354 1.1282 7.63991 1.15306L4.11836 3.84817C4.05188 3.8982 3.96261 3.92651 3.86938 3.92713Z" fill="black"/>
</svg>
