<svg width="26" height="27" viewBox="0 0 26 27" fill="none" xmlns="http://www.w3.org/2000/svg">
<path d="M23.1117 5.45334C22.765 5.04001 22.1917 4.92001 21.685 5.08001C20.605 5.44001 19.3784 5.34667 18.3117 4.74667C17.245 4.13334 16.5517 3.12001 16.3117 2.01334C16.1917 1.48001 15.7917 1.04001 15.2584 0.960007C13.925 0.746674 12.5384 0.746674 11.1784 0.97334C10.645 1.06667 10.2584 1.49334 10.1384 2.02667C9.89835 3.14667 9.21835 4.16001 8.15168 4.78667C7.08502 5.41334 5.85835 5.49334 4.77835 5.14667C4.27168 4.98667 3.69835 5.10667 3.35168 5.52001C2.48502 6.60001 1.80502 7.80001 1.33835 9.06667C1.15168 9.57334 1.33835 10.1333 1.73835 10.48C2.57835 11.2533 3.11168 12.36 3.12502 13.5867C3.12502 14.8267 2.59168 15.92 1.75168 16.6933C1.35168 17.0533 1.17835 17.6133 1.36502 18.1067C1.60502 18.7333 1.89835 19.36 2.24502 19.96C2.59168 20.56 2.99168 21.12 3.41835 21.64C3.76502 22.0533 4.33835 22.1733 4.84502 22.0133C5.92502 21.6533 7.15168 21.7467 8.21835 22.3467C9.28502 22.96 9.97835 23.9733 10.2184 25.08C10.3384 25.6 10.725 26.04 11.2584 26.12C12.605 26.3333 13.9784 26.3333 15.3384 26.1067C15.8717 26.0133 16.2584 25.5867 16.3784 25.0533C16.6184 23.9333 17.2984 22.92 18.365 22.2933C19.4317 21.6667 20.6584 21.5867 21.7384 21.9333C22.2584 22.0933 22.8317 21.9733 23.165 21.5467C24.0317 20.4667 24.7117 19.2667 25.1917 18C25.3784 17.4933 25.1917 16.9333 24.7917 16.5867C23.9384 15.8267 23.405 14.72 23.3917 13.4933C23.3917 12.2533 23.925 11.16 24.765 10.3867C25.165 10.0267 25.3384 9.46667 25.1517 8.97334C24.9117 8.34667 24.6184 7.72001 24.2717 7.12001C23.9384 6.52001 23.5384 5.97334 23.1117 5.45334Z" stroke="#252525" stroke-width="1.2" stroke-miterlimit="10" stroke-linecap="round" stroke-linejoin="round"/>
<path d="M13.2717 17.4934C15.4514 17.4934 17.2183 15.7264 17.2183 13.5467C17.2183 11.367 15.4514 9.60004 13.2717 9.60004C11.092 9.60004 9.32501 11.367 9.32501 13.5467C9.32501 15.7264 11.092 17.4934 13.2717 17.4934Z" stroke="#252525" stroke-width="1.2" stroke-miterlimit="10" stroke-linecap="round" stroke-linejoin="round"/>
</svg>
