<svg width="21" height="22" viewBox="0 0 21 22" fill="none" xmlns="http://www.w3.org/2000/svg">
<path d="M18.2173 4.45327C17.9459 4.12977 17.4972 4.03585 17.1006 4.16107C16.2554 4.44284 15.2953 4.36979 14.4604 3.90018C13.6256 3.42014 13.0829 2.62703 12.8951 1.76087C12.8011 1.34344 12.4881 0.999067 12.0707 0.936453C11.0271 0.769483 9.94177 0.769483 8.87734 0.946889C8.45991 1.01994 8.15728 1.35388 8.06336 1.77131C7.87551 2.6479 7.34329 3.44101 6.50844 3.93149C5.67359 4.42196 4.71351 4.48458 3.86822 4.21325C3.47166 4.08802 3.02293 4.18194 2.7516 4.50545C2.07328 5.35074 1.54107 6.28995 1.17582 7.28134C1.02972 7.67789 1.17582 8.11619 1.48889 8.38752C2.14633 8.99279 2.56376 9.85894 2.5742 10.819C2.5742 11.7895 2.15677 12.6453 1.49932 13.2505C1.18625 13.5323 1.05059 13.9706 1.19669 14.3567C1.38453 14.8472 1.61411 15.3377 1.88544 15.8073C2.15677 16.2769 2.46984 16.7152 2.80378 17.1222C3.07511 17.4457 3.52384 17.5396 3.9204 17.4144C4.76569 17.1326 5.72577 17.2057 6.56062 17.6753C7.39547 18.1553 7.93813 18.9484 8.12597 19.8146C8.21989 20.2216 8.52252 20.5659 8.93995 20.6286C9.99395 20.7955 11.0688 20.7955 12.1333 20.6181C12.5507 20.5451 12.8533 20.2111 12.9472 19.7937C13.1351 18.9171 13.6673 18.124 14.5022 17.6335C15.337 17.143 16.2971 17.0804 17.1424 17.3518C17.5494 17.477 17.9981 17.3831 18.259 17.0491C18.9373 16.2038 19.4695 15.2646 19.8452 14.2732C19.9913 13.8767 19.8452 13.4384 19.5321 13.167C18.8643 12.5722 18.4468 11.7061 18.4364 10.746C18.4364 9.77546 18.8538 8.91974 19.5113 8.31447C19.8243 8.0327 19.96 7.59441 19.8139 7.20829C19.6261 6.71781 19.3965 6.22733 19.1252 5.75773C18.8643 5.28813 18.5512 4.86026 18.2173 4.45327Z" stroke="#252525" stroke-width="0.969507" stroke-miterlimit="10" stroke-linecap="round" stroke-linejoin="round"/>
<path d="M10.5157 13.8762C12.2217 13.8762 13.6047 12.4932 13.6047 10.7872C13.6047 9.08122 12.2217 7.69824 10.5157 7.69824C8.80973 7.69824 7.42676 9.08122 7.42676 10.7872C7.42676 12.4932 8.80973 13.8762 10.5157 13.8762Z" stroke="#252525" stroke-width="0.969507" stroke-miterlimit="10" stroke-linecap="round" stroke-linejoin="round"/>
</svg>
