<svg width="77" height="26" viewBox="0 0 77 26" fill="none" xmlns="http://www.w3.org/2000/svg">
<g clip-path="url(#clip0_87_895)">
<path d="M20.2799 18.9775H5.76953V10.6179C5.76953 6.61248 9.01402 3.35742 13.03 3.35742C17.0354 3.35742 20.2905 6.60191 20.2905 10.6179V18.9775H20.2799Z" stroke="#252525" stroke-width="0.951154" stroke-miterlimit="10" stroke-linecap="round" stroke-linejoin="round"/>
<path d="M3.44531 18.9785H22.6058" stroke="#252525" stroke-width="0.951154" stroke-miterlimit="10" stroke-linecap="round" stroke-linejoin="round"/>
<path d="M15.1563 21.0781C15.1563 22.2512 14.2052 23.2129 13.0215 23.2129C11.8379 23.2129 10.8867 22.2618 10.8867 21.0781" stroke="#252525" stroke-width="0.951154" stroke-miterlimit="10" stroke-linecap="round" stroke-linejoin="round"/>
<path d="M25.6678 4.83672C25.6678 6.95254 23.9526 8.66776 21.8367 8.66776C19.7209 8.66776 18.0057 6.95254 18.0057 4.83672C18.0057 2.7209 19.7209 1.00569 21.8367 1.00569C23.9526 1.00569 25.6678 2.7209 25.6678 4.83672Z" fill="#FF5A5A" stroke="white" stroke-width="0.792628"/>
</g>
<path d="M71.4955 7.04644C71.2207 6.71882 70.7663 6.62371 70.3647 6.75053C69.5086 7.03588 68.5363 6.9619 67.6909 6.48632C66.8454 6.00018 66.2959 5.19698 66.1056 4.31981C66.0105 3.89707 65.6935 3.54831 65.2707 3.4849C64.2139 3.31581 63.1148 3.31581 62.0368 3.49547C61.6141 3.56945 61.3076 3.90764 61.2125 4.33037C61.0222 5.21812 60.4832 6.02131 59.6378 6.51803C58.7923 7.01474 57.82 7.07815 56.964 6.80337C56.5624 6.67655 56.1079 6.77167 55.8332 7.09929C55.1462 7.95532 54.6072 8.90648 54.2373 9.91047C54.0894 10.3121 54.2373 10.7559 54.5544 11.0307C55.2202 11.6437 55.6429 12.5209 55.6535 13.4931C55.6535 14.476 55.2308 15.3426 54.565 15.9556C54.2479 16.2409 54.1105 16.6848 54.2585 17.0758C54.4487 17.5725 54.6812 18.0693 54.956 18.5448C55.2308 19.0204 55.5478 19.4643 55.886 19.8764C56.1608 20.2041 56.6152 20.2992 57.0168 20.1724C57.8729 19.887 58.8451 19.961 59.6906 20.4366C60.5361 20.9227 61.0856 21.7259 61.2759 22.6031C61.371 23.0152 61.6775 23.364 62.1002 23.4274C63.1676 23.5965 64.2562 23.5965 65.3341 23.4168C65.7569 23.3429 66.0633 23.0047 66.1585 22.5819C66.3487 21.6942 66.8877 20.891 67.7332 20.3943C68.5786 19.8976 69.5509 19.8342 70.407 20.1089C70.8191 20.2358 71.2736 20.1407 71.5378 19.8025C72.2247 18.9464 72.7637 17.9953 73.1442 16.9913C73.2921 16.5897 73.1442 16.1458 72.8271 15.871C72.1507 15.2686 71.728 14.3915 71.7174 13.4192C71.7174 12.4363 72.1402 11.5697 72.806 10.9567C73.123 10.6714 73.2604 10.2275 73.1125 9.83649C72.9222 9.33978 72.6897 8.84307 72.4149 8.36749C72.1507 7.89191 71.8337 7.45861 71.4955 7.04644Z" stroke="#252525" stroke-width="0.951154" stroke-miterlimit="10" stroke-linecap="round" stroke-linejoin="round"/>
<path d="M63.6986 16.5924C65.4262 16.5924 66.8268 15.1919 66.8268 13.4642C66.8268 11.7365 65.4262 10.3359 63.6986 10.3359C61.9709 10.3359 60.5703 11.7365 60.5703 13.4642C60.5703 15.1919 61.9709 16.5924 63.6986 16.5924Z" stroke="#252525" stroke-width="0.951154" stroke-miterlimit="10" stroke-linecap="round" stroke-linejoin="round"/>
<defs>
<clipPath id="clip0_87_895">
<rect width="25.3641" height="25.3641" fill="white" transform="translate(0.695312 0.609375)"/>
</clipPath>
</defs>
</svg>
