<svg width="15" height="16" viewBox="0 0 15 16" fill="none" xmlns="http://www.w3.org/2000/svg">
<path d="M14.0305 13.7069H1.18993C1.00073 13.7069 0.819284 13.786 0.685502 13.9268C0.55172 14.0676 0.476563 14.2586 0.476562 14.4578C0.476563 14.6569 0.55172 14.8479 0.685502 14.9888C0.819284 15.1296 1.00073 15.2087 1.18993 15.2087H14.0305C14.2197 15.2087 14.4012 15.1296 14.5349 14.9888C14.6687 14.8479 14.7439 14.6569 14.7439 14.4578C14.7439 14.2586 14.6687 14.0676 14.5349 13.9268C14.4012 13.786 14.2197 13.7069 14.0305 13.7069Z" fill="#252525"/>
<path d="M7.6103 0.941406C7.4211 0.941406 7.23965 1.02052 7.10587 1.16134C6.97209 1.30217 6.89693 1.49317 6.89693 1.69232V9.6445L4.54996 7.16648C4.41563 7.02508 4.23344 6.94565 4.04347 6.94565C3.8535 6.94565 3.67131 7.02508 3.53698 7.16648C3.40265 7.30788 3.32719 7.49966 3.32719 7.69963C3.32719 7.8996 3.40265 8.09138 3.53698 8.23278L7.10381 11.9874C7.17013 12.0577 7.24902 12.1136 7.33595 12.1517C7.42288 12.1898 7.51613 12.2095 7.6103 12.2095C7.70447 12.2095 7.79771 12.1898 7.88464 12.1517C7.97157 12.1136 8.05047 12.0577 8.11679 11.9874L11.6836 8.23278C11.7501 8.16277 11.8029 8.07965 11.8389 7.98817C11.8749 7.89669 11.8934 7.79865 11.8934 7.69963C11.8934 7.60062 11.8749 7.50257 11.8389 7.41109C11.8029 7.31962 11.7501 7.2365 11.6836 7.16648C11.6171 7.09647 11.5381 7.04093 11.4512 7.00304C11.3643 6.96515 11.2712 6.94565 11.1771 6.94565C11.0831 6.94565 10.9899 6.96515 10.903 7.00304C10.8161 7.04093 10.7371 7.09647 10.6706 7.16648L8.32366 9.6445V1.69232C8.32366 1.49317 8.24851 1.30217 8.11472 1.16134C7.98094 1.02052 7.79949 0.941406 7.6103 0.941406Z" fill="#252525"/>
</svg>
