<svg width="44" height="49" viewBox="0 0 44 49" fill="none" xmlns="http://www.w3.org/2000/svg">
<path d="M0 17.15V46.55C0 47.1998 0.257539 47.823 0.715961 48.2824C1.17438 48.7419 1.79614 49 2.44444 49H14.6667C15.315 49 15.9367 48.7419 16.3951 48.2824C16.8536 47.823 17.1111 47.1998 17.1111 46.55V29.4H26.8889V46.55C26.8889 47.1998 27.1464 47.823 27.6049 48.2824C28.0633 48.7419 28.685 49 29.3333 49H41.5556C42.2039 49 42.8256 48.7419 43.284 48.2824C43.7425 47.823 44 47.1998 44 46.55V17.15C44 16.7696 43.9116 16.3945 43.7419 16.0543C43.5722 15.7141 43.3258 15.4182 43.0222 15.19L23.4667 0.49C23.0435 0.171936 22.5289 0 22 0C21.4711 0 20.9565 0.171936 20.5333 0.49L0.977778 15.19C0.674188 15.4182 0.427779 15.7141 0.258067 16.0543C0.0883544 16.3945 0 16.7696 0 17.15ZM4.88889 18.375L22 5.5125L39.1111 18.375V44.1H31.7778V26.95C31.7778 26.3002 31.5202 25.6771 31.0618 25.2176C30.6034 24.7581 29.9816 24.5 29.3333 24.5H14.6667C14.0184 24.5 13.3966 24.7581 12.9382 25.2176C12.4798 25.6771 12.2222 26.3002 12.2222 26.95V44.1H4.88889V18.375Z" fill="#EC1A25"/>
</svg>
