<svg width="20" height="20" viewBox="0 0 20 20" fill="none" xmlns="http://www.w3.org/2000/svg">
<path fill-rule="evenodd" clip-rule="evenodd" d="M13.4719 1.60547C14.7702 1.60547 15.9921 2.15481 16.9085 3.09655C17.9013 4.03829 18.4359 5.37241 18.2831 6.70654C18.2831 8.04066 17.7486 9.37479 16.8321 10.3165L10.1117 17.2226C9.95896 17.3795 9.80622 17.458 9.57712 17.458C9.34801 17.458 9.19527 17.3795 9.04253 17.2226L2.3221 10.3165C1.40567 9.37479 0.871094 8.04066 0.871094 6.70654C0.871094 5.37241 1.40567 4.03829 2.39847 3.09655C4.30768 1.1346 7.43879 1.1346 9.34801 3.09655L9.65348 3.41046L9.95896 3.09655C10.8754 2.15481 12.1736 1.60547 13.4719 1.60547ZM9.65204 15.5744L15.8379 9.21767C16.5252 8.51137 16.9071 7.64811 16.9071 6.70637C16.9071 5.76464 16.5252 4.90138 15.9143 4.19508C15.2269 3.56726 14.3869 3.17487 13.4705 3.17487C12.4777 3.17487 11.6376 3.56726 10.9503 4.19508L10.1866 5.05834C9.88114 5.37225 9.42293 5.37225 9.11746 5.05834L8.2774 4.19508C7.59009 3.48878 6.75003 3.17487 5.83361 3.17487C4.99355 3.17487 4.07713 3.48878 3.46618 4.19508C2.85523 4.90138 2.47339 5.76464 2.47339 6.70637C2.47339 7.64811 2.77886 8.51137 3.46618 9.21767L9.65204 15.5744Z" fill="#EC1A25"/>
<mask id="mask0_87_1669" style="mask-type:luminance" maskUnits="userSpaceOnUse" x="0" y="1" width="19" height="17">
<path fill-rule="evenodd" clip-rule="evenodd" d="M13.4719 1.60547C14.7702 1.60547 15.9921 2.15481 16.9085 3.09655C17.9013 4.03829 18.4359 5.37241 18.2831 6.70654C18.2831 8.04066 17.7486 9.37479 16.8321 10.3165L10.1117 17.2226C9.95896 17.3795 9.80622 17.458 9.57712 17.458C9.34801 17.458 9.19527 17.3795 9.04253 17.2226L2.3221 10.3165C1.40567 9.37479 0.871094 8.04066 0.871094 6.70654C0.871094 5.37241 1.40567 4.03829 2.39847 3.09655C4.30768 1.1346 7.43879 1.1346 9.34801 3.09655L9.65348 3.41046L9.95896 3.09655C10.8754 2.15481 12.1736 1.60547 13.4719 1.60547ZM9.65204 15.5744L15.8379 9.21767C16.5252 8.51137 16.9071 7.64811 16.9071 6.70637C16.9071 5.76464 16.5252 4.90138 15.9143 4.19508C15.2269 3.56726 14.3869 3.17487 13.4705 3.17487C12.4777 3.17487 11.6376 3.56726 10.9503 4.19508L10.1866 5.05834C9.88114 5.37225 9.42293 5.37225 9.11746 5.05834L8.2774 4.19508C7.59009 3.48878 6.75003 3.17487 5.83361 3.17487C4.99355 3.17487 4.07713 3.48878 3.46618 4.19508C2.85523 4.90138 2.47339 5.76464 2.47339 6.70637C2.47339 7.64811 2.77886 8.51137 3.46618 9.21767L9.65204 15.5744Z" fill="white"/>
</mask>
<g mask="url(#mask0_87_1669)">
</g>
</svg>
