<svg width="21" height="20" viewBox="0 0 21 20" fill="none" xmlns="http://www.w3.org/2000/svg">
<path fill-rule="evenodd" clip-rule="evenodd" d="M14.3782 2.30078C15.6764 2.30078 16.8983 2.85013 17.8148 3.79186C18.8075 4.7336 19.3421 6.06772 19.1894 7.40185C19.1894 8.73597 18.6548 10.0701 17.7384 11.0118L11.0179 17.9179C10.8652 18.0749 10.7125 18.1533 10.4834 18.1533C10.2543 18.1533 10.1015 18.0749 9.94878 17.9179L3.22835 11.0118C2.31192 10.0701 1.77734 8.73597 1.77734 7.40185C1.77734 6.06772 2.31192 4.7336 3.30472 3.79186C5.21393 1.82991 8.34504 1.82991 10.2543 3.79186L10.5597 4.10577L10.8652 3.79186C11.7816 2.85013 13.0799 2.30078 14.3782 2.30078ZM10.5583 16.2697L16.7441 9.91298C17.4315 9.20668 17.8133 8.34342 17.8133 7.40169C17.8133 6.45995 17.4315 5.59669 16.8205 4.89039C16.1332 4.26257 15.2931 3.87018 14.3767 3.87018C13.3839 3.87018 12.5439 4.26257 11.8566 4.89039L11.0929 5.75365C10.7874 6.06756 10.3292 6.06756 10.0237 5.75365L9.18365 4.89039C8.49634 4.18409 7.65628 3.87018 6.73986 3.87018C5.8998 3.87018 4.98338 4.18409 4.37243 4.89039C3.76148 5.59669 3.37964 6.45995 3.37964 7.40169C3.37964 8.34342 3.68511 9.20668 4.37243 9.91298L10.5583 16.2697Z" fill="#EC1A25"/>
<mask id="mask0_87_1605" style="mask-type:luminance" maskUnits="userSpaceOnUse" x="1" y="2" width="19" height="17">
<path fill-rule="evenodd" clip-rule="evenodd" d="M14.3782 2.30078C15.6764 2.30078 16.8983 2.85013 17.8148 3.79186C18.8075 4.7336 19.3421 6.06772 19.1894 7.40185C19.1894 8.73597 18.6548 10.0701 17.7384 11.0118L11.0179 17.9179C10.8652 18.0749 10.7125 18.1533 10.4834 18.1533C10.2543 18.1533 10.1015 18.0749 9.94878 17.9179L3.22835 11.0118C2.31192 10.0701 1.77734 8.73597 1.77734 7.40185C1.77734 6.06772 2.31192 4.7336 3.30472 3.79186C5.21393 1.82991 8.34504 1.82991 10.2543 3.79186L10.5597 4.10577L10.8652 3.79186C11.7816 2.85013 13.0799 2.30078 14.3782 2.30078ZM10.5583 16.2697L16.7441 9.91298C17.4315 9.20668 17.8133 8.34342 17.8133 7.40169C17.8133 6.45995 17.4315 5.59669 16.8205 4.89039C16.1332 4.26257 15.2931 3.87018 14.3767 3.87018C13.3839 3.87018 12.5439 4.26257 11.8566 4.89039L11.0929 5.75365C10.7874 6.06756 10.3292 6.06756 10.0237 5.75365L9.18365 4.89039C8.49634 4.18409 7.65628 3.87018 6.73986 3.87018C5.8998 3.87018 4.98338 4.18409 4.37243 4.89039C3.76148 5.59669 3.37964 6.45995 3.37964 7.40169C3.37964 8.34342 3.68511 9.20668 4.37243 9.91298L10.5583 16.2697Z" fill="white"/>
</mask>
<g mask="url(#mask0_87_1605)">
</g>
</svg>
