<svg width="20" height="20" viewBox="0 0 20 20" fill="none" xmlns="http://www.w3.org/2000/svg">
<path fill-rule="evenodd" clip-rule="evenodd" d="M10.0892 6.10996C10.9611 6.10996 11.6744 5.3966 11.6744 4.52471C11.6744 3.65282 10.9611 2.93945 10.0892 2.93945C9.21727 2.93945 8.50391 3.65282 8.50391 4.52471C8.50391 5.3966 9.21727 6.10996 10.0892 6.10996ZM11.6744 10.0731C11.6744 10.945 10.9611 11.6584 10.0892 11.6584C9.21727 11.6584 8.50391 10.945 8.50391 10.0731C8.50391 9.20122 9.21727 8.48785 10.0892 8.48785C10.9611 8.48785 11.6744 9.20122 11.6744 10.0731ZM8.50391 15.6216C8.50391 14.7497 9.21727 14.0363 10.0892 14.0363C10.9611 14.0363 11.6744 14.7497 11.6744 15.6216C11.6744 16.4935 10.9611 17.2068 10.0892 17.2068C9.21727 17.2068 8.50391 16.4935 8.50391 15.6216Z" fill="#131336"/>
<mask id="mask0_87_1592" style="mask-type:luminance" maskUnits="userSpaceOnUse" x="8" y="2" width="4" height="16">
<path fill-rule="evenodd" clip-rule="evenodd" d="M10.0892 6.10996C10.9611 6.10996 11.6744 5.3966 11.6744 4.52471C11.6744 3.65282 10.9611 2.93945 10.0892 2.93945C9.21727 2.93945 8.50391 3.65282 8.50391 4.52471C8.50391 5.3966 9.21727 6.10996 10.0892 6.10996ZM11.6744 10.0731C11.6744 10.945 10.9611 11.6584 10.0892 11.6584C9.21727 11.6584 8.50391 10.945 8.50391 10.0731C8.50391 9.20122 9.21727 8.48785 10.0892 8.48785C10.9611 8.48785 11.6744 9.20122 11.6744 10.0731ZM8.50391 15.6216C8.50391 14.7497 9.21727 14.0363 10.0892 14.0363C10.9611 14.0363 11.6744 14.7497 11.6744 15.6216C11.6744 16.4935 10.9611 17.2068 10.0892 17.2068C9.21727 17.2068 8.50391 16.4935 8.50391 15.6216Z" fill="white"/>
</mask>
<g mask="url(#mask0_87_1592)">
</g>
</svg>
