<svg width="20" height="14" viewBox="0 0 20 14" fill="none" xmlns="http://www.w3.org/2000/svg">
<path fill-rule="evenodd" clip-rule="evenodd" d="M8.74357 0.306131C8.99978 0.141224 9.42682 0.0587704 9.68303 0.223677C10.0247 0.388584 10.1955 0.635945 10.1955 0.965759V6.73751V12.5093C10.1955 12.8391 9.93925 13.0864 9.68303 13.2513C9.59763 13.3338 9.42682 13.3338 9.34141 13.3338C9.1706 13.3338 8.99978 13.2513 8.82897 13.1689L1.14241 7.39713C0.886188 7.23223 0.800781 6.98487 0.800781 6.73751C0.800781 6.49015 0.886188 6.24278 1.057 6.07788L8.74357 0.306131ZM3.02114 6.73717L8.48715 10.8598V2.61449L3.02114 6.73717ZM19.0779 0.223742C18.8216 0.0588348 18.3946 0.141288 18.1384 0.306195L10.4518 6.07794C10.281 6.24285 10.1956 6.49021 10.1956 6.73757C10.1956 6.98493 10.281 7.23229 10.5372 7.3972L18.2238 13.1689C18.3946 13.2514 18.5654 13.3339 18.7362 13.3339C18.8216 13.3339 18.9925 13.3339 19.0779 13.2514C19.3341 13.0865 19.5903 12.8391 19.5903 12.5093V0.965824C19.5903 0.636009 19.4195 0.388649 19.0779 0.223742ZM12.4158 6.73717L17.8818 10.8598V2.61449L12.4158 6.73717Z" fill="#EC1A25"/>
</svg>
