<svg width="20" height="20" viewBox="0 0 20 20" fill="none" xmlns="http://www.w3.org/2000/svg">
<path fill-rule="evenodd" clip-rule="evenodd" d="M9.72198 6.26231C10.5939 6.26231 11.3072 5.54894 11.3072 4.67705C11.3072 3.80516 10.5939 3.0918 9.72198 3.0918C8.85008 3.0918 8.13672 3.80516 8.13672 4.67705C8.13672 5.54894 8.85008 6.26231 9.72198 6.26231ZM11.3072 10.2255C11.3072 11.0974 10.5939 11.8108 9.72198 11.8108C8.85008 11.8108 8.13672 11.0974 8.13672 10.2255C8.13672 9.35362 8.85008 8.64026 9.72198 8.64026C10.5939 8.64026 11.3072 9.35362 11.3072 10.2255ZM8.13672 15.7739C8.13672 14.902 8.85008 14.1887 9.72198 14.1887C10.5939 14.1887 11.3072 14.902 11.3072 15.7739C11.3072 16.6458 10.5939 17.3592 9.72198 17.3592C8.85008 17.3592 8.13672 16.6458 8.13672 15.7739Z" fill="#131336"/>
<mask id="mask0_87_1624" style="mask-type:luminance" maskUnits="userSpaceOnUse" x="8" y="3" width="4" height="15">
<path fill-rule="evenodd" clip-rule="evenodd" d="M9.72198 6.26231C10.5939 6.26231 11.3072 5.54894 11.3072 4.67705C11.3072 3.80516 10.5939 3.0918 9.72198 3.0918C8.85008 3.0918 8.13672 3.80516 8.13672 4.67705C8.13672 5.54894 8.85008 6.26231 9.72198 6.26231ZM11.3072 10.2255C11.3072 11.0974 10.5939 11.8108 9.72198 11.8108C8.85008 11.8108 8.13672 11.0974 8.13672 10.2255C8.13672 9.35362 8.85008 8.64026 9.72198 8.64026C10.5939 8.64026 11.3072 9.35362 11.3072 10.2255ZM8.13672 15.7739C8.13672 14.902 8.85008 14.1887 9.72198 14.1887C10.5939 14.1887 11.3072 14.902 11.3072 15.7739C11.3072 16.6458 10.5939 17.3592 9.72198 17.3592C8.85008 17.3592 8.13672 16.6458 8.13672 15.7739Z" fill="white"/>
</mask>
<g mask="url(#mask0_87_1624)">
</g>
</svg>
