<svg width="20" height="20" viewBox="0 0 20 20" fill="none" xmlns="http://www.w3.org/2000/svg">
<path fill-rule="evenodd" clip-rule="evenodd" d="M13.4719 2.45312C14.7702 2.45312 15.9921 3.00247 16.9085 3.94421C17.9013 4.88594 18.4359 6.22007 18.2831 7.55419C18.2831 8.88832 17.7486 10.2224 16.8321 11.1642L10.1117 18.0702C9.95896 18.2272 9.80622 18.3057 9.57712 18.3057C9.34801 18.3057 9.19527 18.2272 9.04253 18.0702L2.3221 11.1642C1.40567 10.2224 0.871094 8.88832 0.871094 7.55419C0.871094 6.22007 1.40567 4.88594 2.39847 3.94421C4.30768 1.98226 7.43879 1.98226 9.34801 3.94421L9.65348 4.25812L9.95896 3.94421C10.8754 3.00247 12.1736 2.45312 13.4719 2.45312ZM9.65204 16.422L15.8379 10.0653C16.5252 9.35896 16.9071 8.49571 16.9071 7.55397C16.9071 6.61223 16.5252 5.74898 15.9143 5.04267C15.2269 4.41485 14.3869 4.02246 13.4705 4.02246C12.4777 4.02246 11.6376 4.41485 10.9503 5.04267L10.1866 5.90593C9.88114 6.21984 9.42293 6.21984 9.11746 5.90593L8.2774 5.04267C7.59009 4.33637 6.75003 4.02246 5.83361 4.02246C4.99355 4.02246 4.07713 4.33637 3.46618 5.04267C2.85523 5.74898 2.47339 6.61223 2.47339 7.55397C2.47339 8.49571 2.77886 9.35896 3.46618 10.0653L9.65204 16.422Z" fill="#EC1A25"/>
<mask id="mask0_87_1637" style="mask-type:luminance" maskUnits="userSpaceOnUse" x="0" y="2" width="19" height="17">
<path fill-rule="evenodd" clip-rule="evenodd" d="M13.4719 2.45312C14.7702 2.45312 15.9921 3.00247 16.9085 3.94421C17.9013 4.88594 18.4359 6.22007 18.2831 7.55419C18.2831 8.88832 17.7486 10.2224 16.8321 11.1642L10.1117 18.0702C9.95896 18.2272 9.80622 18.3057 9.57712 18.3057C9.34801 18.3057 9.19527 18.2272 9.04253 18.0702L2.3221 11.1642C1.40567 10.2224 0.871094 8.88832 0.871094 7.55419C0.871094 6.22007 1.40567 4.88594 2.39847 3.94421C4.30768 1.98226 7.43879 1.98226 9.34801 3.94421L9.65348 4.25812L9.95896 3.94421C10.8754 3.00247 12.1736 2.45312 13.4719 2.45312ZM9.65204 16.422L15.8379 10.0653C16.5252 9.35896 16.9071 8.49571 16.9071 7.55397C16.9071 6.61223 16.5252 5.74898 15.9143 5.04267C15.2269 4.41485 14.3869 4.02246 13.4705 4.02246C12.4777 4.02246 11.6376 4.41485 10.9503 5.04267L10.1866 5.90593C9.88114 6.21984 9.42293 6.21984 9.11746 5.90593L8.2774 5.04267C7.59009 4.33637 6.75003 4.02246 5.83361 4.02246C4.99355 4.02246 4.07713 4.33637 3.46618 5.04267C2.85523 5.74898 2.47339 6.61223 2.47339 7.55397C2.47339 8.49571 2.77886 9.35896 3.46618 10.0653L9.65204 16.422Z" fill="white"/>
</mask>
<g mask="url(#mask0_87_1637)">
</g>
</svg>
