<svg width="21" height="20" viewBox="0 0 21 20" fill="none" xmlns="http://www.w3.org/2000/svg">
<path fill-rule="evenodd" clip-rule="evenodd" d="M14.3782 1.75781C15.6764 1.75781 16.8983 2.30716 17.8148 3.24889C18.8075 4.19063 19.3421 5.52476 19.1894 6.85888C19.1894 8.19301 18.6548 9.52713 17.7384 10.4689L11.0179 17.3749C10.8652 17.5319 10.7125 17.6104 10.4834 17.6104C10.2543 17.6104 10.1015 17.5319 9.94878 17.3749L3.22835 10.4689C2.31192 9.52713 1.77734 8.19301 1.77734 6.85888C1.77734 5.52476 2.31192 4.19063 3.30472 3.24889C5.21393 1.28694 8.34504 1.28694 10.2543 3.24889L10.5597 3.56281L10.8652 3.24889C11.7816 2.30716 13.0799 1.75781 14.3782 1.75781ZM10.5583 15.7267L16.7441 9.36995C17.4315 8.66365 17.8133 7.80039 17.8133 6.85866C17.8133 5.91692 17.4315 5.05366 16.8205 4.34736C16.1332 3.71954 15.2931 3.32715 14.3767 3.32715C13.3839 3.32715 12.5439 3.71954 11.8566 4.34736L11.0929 5.21062C10.7874 5.52453 10.3292 5.52453 10.0237 5.21062L9.18365 4.34736C8.49634 3.64106 7.65628 3.32715 6.73986 3.32715C5.8998 3.32715 4.98338 3.64106 4.37243 4.34736C3.76148 5.05366 3.37964 5.91692 3.37964 6.85866C3.37964 7.80039 3.68511 8.66365 4.37243 9.36995L10.5583 15.7267Z" fill="#EC1A25"/>
<mask id="mask0_87_1701" style="mask-type:luminance" maskUnits="userSpaceOnUse" x="1" y="1" width="19" height="17">
<path fill-rule="evenodd" clip-rule="evenodd" d="M14.3782 1.75781C15.6764 1.75781 16.8983 2.30716 17.8148 3.24889C18.8075 4.19063 19.3421 5.52476 19.1894 6.85888C19.1894 8.19301 18.6548 9.52713 17.7384 10.4689L11.0179 17.3749C10.8652 17.5319 10.7125 17.6104 10.4834 17.6104C10.2543 17.6104 10.1015 17.5319 9.94878 17.3749L3.22835 10.4689C2.31192 9.52713 1.77734 8.19301 1.77734 6.85888C1.77734 5.52476 2.31192 4.19063 3.30472 3.24889C5.21393 1.28694 8.34504 1.28694 10.2543 3.24889L10.5597 3.56281L10.8652 3.24889C11.7816 2.30716 13.0799 1.75781 14.3782 1.75781ZM10.5583 15.7267L16.7441 9.36995C17.4315 8.66365 17.8133 7.80039 17.8133 6.85866C17.8133 5.91692 17.4315 5.05366 16.8205 4.34736C16.1332 3.71954 15.2931 3.32715 14.3767 3.32715C13.3839 3.32715 12.5439 3.71954 11.8566 4.34736L11.0929 5.21062C10.7874 5.52453 10.3292 5.52453 10.0237 5.21062L9.18365 4.34736C8.49634 3.64106 7.65628 3.32715 6.73986 3.32715C5.8998 3.32715 4.98338 3.64106 4.37243 4.34736C3.76148 5.05366 3.37964 5.91692 3.37964 6.85866C3.37964 7.80039 3.68511 8.66365 4.37243 9.36995L10.5583 15.7267Z" fill="white"/>
</mask>
<g mask="url(#mask0_87_1701)">
</g>
</svg>
