<svg width="17" height="17" viewBox="0 0 17 17" fill="none" xmlns="http://www.w3.org/2000/svg">
<path fill-rule="evenodd" clip-rule="evenodd" d="M16.731 0.943018V4.90616C16.731 5.38173 16.3958 5.69878 15.8929 5.69878C15.3901 5.69878 15.0549 5.38173 15.0549 4.90616V2.84532L2.23323 14.9725C2.06562 15.1311 1.89802 15.2103 1.64661 15.2103C1.39521 15.2103 1.2276 15.1311 1.06 14.9725C0.724792 14.6555 0.724792 14.1799 1.06 13.8628L13.8817 1.73565H11.7028C11.2 1.73565 10.8648 1.41859 10.8648 0.943018C10.8648 0.467442 11.2 0.150391 11.7028 0.150391H15.8929C15.9767 0.150391 16.1444 0.150391 16.2282 0.229653C16.3958 0.308916 16.5634 0.467442 16.6472 0.625967C16.731 0.70523 16.731 0.863755 16.731 0.943018ZM15.8935 10.4561C15.3907 10.4561 15.0555 10.7732 15.0555 11.2488V13.3096L11.452 9.9013C11.1168 9.58425 10.614 9.58425 10.2787 9.9013C9.94354 10.2184 9.94354 10.6939 10.2787 11.011L13.8822 14.4193H11.7034C11.2006 14.4193 10.8654 14.7363 10.8654 15.2119C10.8654 15.6875 11.2006 16.0045 11.7034 16.0045H15.8935C15.9773 16.0045 16.1449 16.0045 16.2287 15.9253C16.3963 15.846 16.5639 15.6875 16.6477 15.529C16.7315 15.4497 16.7315 15.2912 16.7315 15.2119V11.2488C16.7315 10.7732 16.3963 10.4561 15.8935 10.4561ZM5.83689 6.49169C5.58549 6.49169 5.41789 6.41243 5.25028 6.2539L1.06018 2.29077C0.724975 1.97371 0.724975 1.49814 1.06018 1.18109C1.39539 0.864036 1.8982 0.864036 2.23341 1.18109L6.42351 5.14422C6.75872 5.46128 6.75872 5.93685 6.42351 6.2539C6.2559 6.41243 6.0883 6.49169 5.83689 6.49169Z" fill="#EC1A25"/>
</svg>
