<svg width="20" height="20" viewBox="0 0 20 20" fill="none" xmlns="http://www.w3.org/2000/svg">
<path fill-rule="evenodd" clip-rule="evenodd" d="M10.0892 6.4166C10.9611 6.4166 11.6744 5.70324 11.6744 4.83135C11.6744 3.95946 10.9611 3.24609 10.0892 3.24609C9.21727 3.24609 8.50391 3.95946 8.50391 4.83135C8.50391 5.70324 9.21727 6.4166 10.0892 6.4166ZM11.6744 10.3798C11.6744 11.2517 10.9611 11.9651 10.0892 11.9651C9.21727 11.9651 8.50391 11.2517 8.50391 10.3798C8.50391 9.50792 9.21727 8.79456 10.0892 8.79456C10.9611 8.79456 11.6744 9.50792 11.6744 10.3798ZM8.50391 15.9283C8.50391 15.0564 9.21727 14.343 10.0892 14.343C10.9611 14.343 11.6744 15.0564 11.6744 15.9283C11.6744 16.8002 10.9611 17.5135 10.0892 17.5135C9.21727 17.5135 8.50391 16.8002 8.50391 15.9283Z" fill="#131336"/>
<mask id="mask0_87_1656" style="mask-type:luminance" maskUnits="userSpaceOnUse" x="8" y="3" width="4" height="15">
<path fill-rule="evenodd" clip-rule="evenodd" d="M10.0892 6.4166C10.9611 6.4166 11.6744 5.70324 11.6744 4.83135C11.6744 3.95946 10.9611 3.24609 10.0892 3.24609C9.21727 3.24609 8.50391 3.95946 8.50391 4.83135C8.50391 5.70324 9.21727 6.4166 10.0892 6.4166ZM11.6744 10.3798C11.6744 11.2517 10.9611 11.9651 10.0892 11.9651C9.21727 11.9651 8.50391 11.2517 8.50391 10.3798C8.50391 9.50792 9.21727 8.79456 10.0892 8.79456C10.9611 8.79456 11.6744 9.50792 11.6744 10.3798ZM8.50391 15.9283C8.50391 15.0564 9.21727 14.343 10.0892 14.343C10.9611 14.343 11.6744 15.0564 11.6744 15.9283C11.6744 16.8002 10.9611 17.5135 10.0892 17.5135C9.21727 17.5135 8.50391 16.8002 8.50391 15.9283Z" fill="white"/>
</mask>
<g mask="url(#mask0_87_1656)">
</g>
</svg>
