<svg width="20" height="14" viewBox="0 0 20 14" fill="none" xmlns="http://www.w3.org/2000/svg">
<path fill-rule="evenodd" clip-rule="evenodd" d="M8.7389 0.903861C8.9903 0.745424 9.40931 0.666206 9.66072 0.824642C9.99592 0.983079 10.1635 1.22073 10.1635 1.53761V7.08287V12.6281C10.1635 12.945 9.91212 13.1827 9.66072 13.3411C9.57692 13.4203 9.40931 13.4203 9.32551 13.4203C9.15791 13.4203 8.9903 13.3411 8.8227 13.2619L1.28052 7.71662C1.02911 7.55818 0.945312 7.32053 0.945312 7.08287C0.945312 6.84522 1.02911 6.60756 1.19672 6.44913L8.7389 0.903861ZM3.12433 7.08414L8.48766 11.045V3.12323L3.12433 7.08414ZM18.8793 0.824642C18.6279 0.666206 18.2089 0.745424 17.9575 0.903861L10.4153 6.44913C10.2477 6.60756 10.1639 6.84522 10.1639 7.08287C10.1639 7.32053 10.2477 7.55818 10.4991 7.71662L18.0413 13.2619C18.2089 13.3411 18.3765 13.4203 18.5441 13.4203C18.6279 13.4203 18.7955 13.4203 18.8793 13.3411C19.1308 13.1827 19.3822 12.945 19.3822 12.6281V1.53761C19.3822 1.22073 19.2146 0.983079 18.8793 0.824642ZM12.3429 7.08414L17.7062 11.045V3.12323L12.3429 7.08414Z" fill="#EC1A25"/>
</svg>
