<svg width="20" height="20" viewBox="0 0 20 20" fill="none" xmlns="http://www.w3.org/2000/svg">
<path fill-rule="evenodd" clip-rule="evenodd" d="M9.72198 5.71934C10.5939 5.71934 11.3072 5.00597 11.3072 4.13408C11.3072 3.26219 10.5939 2.54883 9.72198 2.54883C8.85008 2.54883 8.13672 3.26219 8.13672 4.13408C8.13672 5.00597 8.85008 5.71934 9.72198 5.71934ZM11.3072 9.68254C11.3072 10.5544 10.5939 11.2678 9.72198 11.2678C8.85008 11.2678 8.13672 10.5544 8.13672 9.68254C8.13672 8.81065 8.85008 8.09729 9.72198 8.09729C10.5939 8.09729 11.3072 8.81065 11.3072 9.68254ZM8.13672 15.231C8.13672 14.3591 8.85008 13.6458 9.72198 13.6458C10.5939 13.6458 11.3072 14.3591 11.3072 15.231C11.3072 16.1029 10.5939 16.8163 9.72198 16.8163C8.85008 16.8163 8.13672 16.1029 8.13672 15.231Z" fill="#131336"/>
<mask id="mask0_87_1720" style="mask-type:luminance" maskUnits="userSpaceOnUse" x="8" y="2" width="4" height="15">
<path fill-rule="evenodd" clip-rule="evenodd" d="M9.72198 5.71934C10.5939 5.71934 11.3072 5.00597 11.3072 4.13408C11.3072 3.26219 10.5939 2.54883 9.72198 2.54883C8.85008 2.54883 8.13672 3.26219 8.13672 4.13408C8.13672 5.00597 8.85008 5.71934 9.72198 5.71934ZM11.3072 9.68254C11.3072 10.5544 10.5939 11.2678 9.72198 11.2678C8.85008 11.2678 8.13672 10.5544 8.13672 9.68254C8.13672 8.81065 8.85008 8.09729 9.72198 8.09729C10.5939 8.09729 11.3072 8.81065 11.3072 9.68254ZM8.13672 15.231C8.13672 14.3591 8.85008 13.6458 9.72198 13.6458C10.5939 13.6458 11.3072 14.3591 11.3072 15.231C11.3072 16.1029 10.5939 16.8163 9.72198 16.8163C8.85008 16.8163 8.13672 16.1029 8.13672 15.231Z" fill="white"/>
</mask>
<g mask="url(#mask0_87_1720)">
</g>
</svg>
