<svg width="20" height="17" viewBox="0 0 20 17" fill="none" xmlns="http://www.w3.org/2000/svg">
<path d="M13.7657 16.4876C12.8218 16.8181 11.8779 16.9834 10.934 16.9834C7.41586 16.9834 4.06932 14.8348 2.868 11.4467C2.69638 11.0335 2.95381 10.5377 3.38285 10.3724C3.8119 10.2071 4.32675 10.4551 4.49836 10.8682C5.78549 14.339 9.64688 16.157 13.2508 14.9175C16.8548 13.6779 18.7426 9.95923 17.4555 6.48847C16.8548 4.83573 15.5677 3.51353 13.9373 2.68716C12.3069 1.94343 10.4192 1.86079 8.70299 2.43925C7.75909 2.7698 6.8152 3.26562 6.12873 4.00936L3.64028 6.24056H6.64358C7.15843 6.24056 7.50167 6.57111 7.50167 7.06693C7.50167 7.56276 7.15843 7.8933 6.64358 7.8933H1.49506V7.8933C1.40925 7.8933 1.32345 7.8933 1.32345 7.8933H1.23764L1.15183 7.81067C1.06602 7.81067 1.06602 7.72803 0.980211 7.72803V7.72803C0.980211 7.72803 0.980211 7.64539 0.894402 7.64539C0.894402 7.56276 0.808594 7.56276 0.808594 7.48012C0.808594 7.39748 0.808594 7.31484 0.808594 7.31484V7.23221V2.1087C0.808594 1.61288 1.15183 1.28233 1.66668 1.28233C2.18153 1.28233 2.52477 1.61288 2.52477 2.1087V5.16628L5.09902 2.85243C5.95711 2.02606 7.07262 1.36497 8.27394 0.951779C10.4192 0.208044 12.736 0.373319 14.7954 1.28233C16.8548 2.27397 18.3994 3.92672 19.1716 5.99265C20.6304 10.2898 18.2277 15.0001 13.7657 16.4876Z" fill="#EC1A25"/>
</svg>
