<svg width="20" height="14" viewBox="0 0 20 14" fill="none" xmlns="http://www.w3.org/2000/svg">
<path fill-rule="evenodd" clip-rule="evenodd" d="M2.32158 0.306131C2.06536 0.141224 1.72373 0.0587704 1.46752 0.223677C1.12589 0.388584 0.955078 0.635945 0.955078 0.965759V12.5093C0.955078 12.8391 1.12589 13.0864 1.46752 13.2513C1.55292 13.3338 1.72373 13.3338 1.80914 13.3338C1.97995 13.3338 2.15077 13.2513 2.32158 13.1689L10.0081 7.39713C10.179 7.23223 10.3498 6.98487 10.3498 6.73751V6.73757V12.5093C10.3498 12.8391 10.5206 13.0865 10.8622 13.2514C10.9476 13.3339 11.1184 13.3339 11.2038 13.3339C11.3746 13.3339 11.5455 13.2514 11.7163 13.1689L19.4028 7.3972C19.5736 7.23229 19.7445 6.98493 19.7445 6.73757C19.7445 6.49021 19.6591 6.24285 19.4028 6.07794L11.7163 0.306195C11.4601 0.141288 11.1184 0.0588348 10.7768 0.223742C10.5206 0.388649 10.3498 0.636009 10.3498 0.965824V6.73751C10.3498 6.49015 10.2644 6.24278 10.0081 6.07788L2.32158 0.306131ZM17.5239 6.73717L12.0579 2.61449V10.8598L17.5239 6.73717ZM8.12921 6.73717L2.6632 2.61449V10.8598L8.12921 6.73717Z" fill="#EC1A25"/>
</svg>
