<svg width="20" height="21" viewBox="0 0 20 21" fill="none" xmlns="http://www.w3.org/2000/svg">
<path fill-rule="evenodd" clip-rule="evenodd" d="M9.9987 6.56771C10.9154 6.56771 11.6654 5.81771 11.6654 4.90104C11.6654 3.98437 10.9154 3.23438 9.9987 3.23438C9.08203 3.23438 8.33203 3.98437 8.33203 4.90104C8.33203 5.81771 9.08203 6.56771 9.9987 6.56771ZM11.6654 10.7344C11.6654 11.651 10.9154 12.401 9.9987 12.401C9.08203 12.401 8.33203 11.651 8.33203 10.7344C8.33203 9.81771 9.08203 9.06771 9.9987 9.06771C10.9154 9.06771 11.6654 9.81771 11.6654 10.7344ZM8.33203 16.5677C8.33203 15.651 9.08203 14.901 9.9987 14.901C10.9154 14.901 11.6654 15.651 11.6654 16.5677C11.6654 17.4844 10.9154 18.2344 9.9987 18.2344C9.08203 18.2344 8.33203 17.4844 8.33203 16.5677Z" fill="#131336"/>
<mask id="mask0_85_590" style="mask-type:luminance" maskUnits="userSpaceOnUse" x="8" y="3" width="4" height="16">
<path fill-rule="evenodd" clip-rule="evenodd" d="M9.9987 6.56771C10.9154 6.56771 11.6654 5.81771 11.6654 4.90104C11.6654 3.98437 10.9154 3.23438 9.9987 3.23438C9.08203 3.23438 8.33203 3.98437 8.33203 4.90104C8.33203 5.81771 9.08203 6.56771 9.9987 6.56771ZM11.6654 10.7344C11.6654 11.651 10.9154 12.401 9.9987 12.401C9.08203 12.401 8.33203 11.651 8.33203 10.7344C8.33203 9.81771 9.08203 9.06771 9.9987 9.06771C10.9154 9.06771 11.6654 9.81771 11.6654 10.7344ZM8.33203 16.5677C8.33203 15.651 9.08203 14.901 9.9987 14.901C10.9154 14.901 11.6654 15.651 11.6654 16.5677C11.6654 17.4844 10.9154 18.2344 9.9987 18.2344C9.08203 18.2344 8.33203 17.4844 8.33203 16.5677Z" fill="white"/>
</mask>
<g mask="url(#mask0_85_590)">
</g>
</svg>
