<svg width="21" height="21" viewBox="0 0 21 21" fill="none" xmlns="http://www.w3.org/2000/svg">
<path fill-rule="evenodd" clip-rule="evenodd" d="M14.5116 2.40137C15.8765 2.40137 17.1612 2.97892 18.1247 3.96902C19.1684 4.95912 19.7305 6.36176 19.5699 7.7644C19.5699 9.16704 19.0079 10.5697 18.0444 11.5598L10.9788 18.8205C10.8182 18.9855 10.6577 19.068 10.4168 19.068C10.1759 19.068 10.0153 18.9855 9.85475 18.8205L2.78919 11.5598C1.82571 10.5697 1.26367 9.16704 1.26367 7.7644C1.26367 6.36176 1.82571 4.95912 2.86948 3.96902C4.87674 1.90632 8.16865 1.90632 10.1759 3.96902L10.4971 4.29906L10.8182 3.96902C11.7817 2.97892 13.1467 2.40137 14.5116 2.40137ZM10.4972 17.0881L17.0007 10.4049C17.7233 9.66232 18.1248 8.75473 18.1248 7.76463C18.1248 6.77453 17.7233 5.86694 17.081 5.12436C16.3584 4.4643 15.4752 4.05176 14.5117 4.05176C13.4679 4.05176 12.5847 4.4643 11.8621 5.12436L11.0592 6.03196C10.738 6.36199 10.2563 6.36199 9.93514 6.03196L9.05195 5.12436C8.32933 4.38179 7.44614 4.05176 6.48265 4.05176C5.59946 4.05176 4.63597 4.38179 3.99365 5.12436C3.35132 5.86694 2.94987 6.77453 2.94987 7.76463C2.94987 8.75473 3.27103 9.66232 3.99365 10.4049L10.4972 17.0881Z" fill="#EC1A25"/>
<mask id="mask0_85_599" style="mask-type:luminance" maskUnits="userSpaceOnUse" x="1" y="2" width="19" height="18">
<path fill-rule="evenodd" clip-rule="evenodd" d="M14.5116 2.40137C15.8765 2.40137 17.1612 2.97892 18.1247 3.96902C19.1684 4.95912 19.7305 6.36176 19.5699 7.7644C19.5699 9.16704 19.0079 10.5697 18.0444 11.5598L10.9788 18.8205C10.8182 18.9855 10.6577 19.068 10.4168 19.068C10.1759 19.068 10.0153 18.9855 9.85475 18.8205L2.78919 11.5598C1.82571 10.5697 1.26367 9.16704 1.26367 7.7644C1.26367 6.36176 1.82571 4.95912 2.86948 3.96902C4.87674 1.90632 8.16865 1.90632 10.1759 3.96902L10.4971 4.29906L10.8182 3.96902C11.7817 2.97892 13.1467 2.40137 14.5116 2.40137ZM10.4972 17.0881L17.0007 10.4049C17.7233 9.66232 18.1248 8.75473 18.1248 7.76463C18.1248 6.77453 17.7233 5.86694 17.081 5.12436C16.3584 4.4643 15.4752 4.05176 14.5117 4.05176C13.4679 4.05176 12.5847 4.4643 11.8621 5.12436L11.0592 6.03196C10.738 6.36199 10.2563 6.36199 9.93514 6.03196L9.05195 5.12436C8.32933 4.38179 7.44614 4.05176 6.48265 4.05176C5.59946 4.05176 4.63597 4.38179 3.99365 5.12436C3.35132 5.86694 2.94987 6.77453 2.94987 7.76463C2.94987 8.75473 3.27103 9.66232 3.99365 10.4049L10.4972 17.0881Z" fill="white"/>
</mask>
<g mask="url(#mask0_85_599)">
</g>
</svg>
