<svg width="17" height="17" viewBox="0 0 17 17" fill="none" xmlns="http://www.w3.org/2000/svg">
<path fill-rule="evenodd" clip-rule="evenodd" d="M16.8834 1.30937V5.43437C16.8834 5.92938 16.5418 6.25938 16.0294 6.25938C15.5169 6.25938 15.1753 5.92938 15.1753 5.43437V3.28938L2.10816 15.9119C1.93734 16.0769 1.76653 16.1594 1.51031 16.1594C1.25409 16.1594 1.08328 16.0769 0.912469 15.9119C0.570844 15.5819 0.570844 15.0869 0.912469 14.7569L13.9796 2.13437H11.7591C11.2466 2.13437 10.905 1.80438 10.905 1.30937C10.905 0.814375 11.2466 0.484375 11.7591 0.484375H16.0294C16.1148 0.484375 16.2856 0.484375 16.371 0.566875C16.5418 0.649375 16.7126 0.814375 16.798 0.979375C16.8834 1.06187 16.8834 1.22688 16.8834 1.30937ZM16.0294 11.2094C15.5169 11.2094 15.1753 11.5394 15.1753 12.0344V14.1794L11.5028 10.6319C11.1612 10.3019 10.6488 10.3019 10.3072 10.6319C9.96553 10.9619 9.96553 11.4569 10.3072 11.7869L13.9796 15.3344H11.7591C11.2466 15.3344 10.905 15.6644 10.905 16.1594C10.905 16.6544 11.2466 16.9844 11.7591 16.9844H16.0294C16.1148 16.9844 16.2856 16.9844 16.371 16.9019C16.5418 16.8194 16.7126 16.6544 16.798 16.4894C16.8834 16.4069 16.8834 16.2419 16.8834 16.1594V12.0344C16.8834 11.5394 16.5418 11.2094 16.0294 11.2094ZM5.78063 7.08437C5.52441 7.08437 5.3536 7.00187 5.18278 6.83687L0.912469 2.71187C0.570844 2.38187 0.570844 1.88687 0.912469 1.55687C1.25409 1.22687 1.76653 1.22687 2.10816 1.55687L6.37847 5.68188C6.7201 6.01188 6.7201 6.50687 6.37847 6.83687C6.20766 7.00187 6.03685 7.08437 5.78063 7.08437Z" fill="#EC1A25"/>
</svg>
