<svg width="20" height="20" viewBox="0 0 20 20" fill="none" xmlns="http://www.w3.org/2000/svg">
<path fill-rule="evenodd" clip-rule="evenodd" d="M10.0892 5.56895C10.9611 5.56895 11.6744 4.85558 11.6744 3.98369C11.6744 3.1118 10.9611 2.39844 10.0892 2.39844C9.21727 2.39844 8.50391 3.1118 8.50391 3.98369C8.50391 4.85558 9.21727 5.56895 10.0892 5.56895ZM11.6744 9.53209C11.6744 10.404 10.9611 11.1173 10.0892 11.1173C9.21727 11.1173 8.50391 10.404 8.50391 9.53209C8.50391 8.6602 9.21727 7.94684 10.0892 7.94684C10.9611 7.94684 11.6744 8.6602 11.6744 9.53209ZM8.50391 15.0806C8.50391 14.2087 9.21727 13.4953 10.0892 13.4953C10.9611 13.4953 11.6744 14.2087 11.6744 15.0806C11.6744 15.9524 10.9611 16.6658 10.0892 16.6658C9.21727 16.6658 8.50391 15.9524 8.50391 15.0806Z" fill="#131336"/>
<mask id="mask0_87_1688" style="mask-type:luminance" maskUnits="userSpaceOnUse" x="8" y="2" width="4" height="15">
<path fill-rule="evenodd" clip-rule="evenodd" d="M10.0892 5.56895C10.9611 5.56895 11.6744 4.85558 11.6744 3.98369C11.6744 3.1118 10.9611 2.39844 10.0892 2.39844C9.21727 2.39844 8.50391 3.1118 8.50391 3.98369C8.50391 4.85558 9.21727 5.56895 10.0892 5.56895ZM11.6744 9.53209C11.6744 10.404 10.9611 11.1173 10.0892 11.1173C9.21727 11.1173 8.50391 10.404 8.50391 9.53209C8.50391 8.6602 9.21727 7.94684 10.0892 7.94684C10.9611 7.94684 11.6744 8.6602 11.6744 9.53209ZM8.50391 15.0806C8.50391 14.2087 9.21727 13.4953 10.0892 13.4953C10.9611 13.4953 11.6744 14.2087 11.6744 15.0806C11.6744 15.9524 10.9611 16.6658 10.0892 16.6658C9.21727 16.6658 8.50391 15.9524 8.50391 15.0806Z" fill="white"/>
</mask>
<g mask="url(#mask0_87_1688)">
</g>
</svg>
