<svg width="20" height="20" viewBox="0 0 20 20" fill="none" xmlns="http://www.w3.org/2000/svg">
<path fill-rule="evenodd" clip-rule="evenodd" d="M13.4719 2.14648C14.7702 2.14648 15.9921 2.69583 16.9085 3.63757C17.9013 4.5793 18.4359 5.91343 18.2831 7.24755C18.2831 8.58168 17.7486 9.9158 16.8321 10.8575L10.1117 17.7636C9.95896 17.9206 9.80622 17.999 9.57712 17.999C9.34801 17.999 9.19527 17.9206 9.04253 17.7636L2.3221 10.8575C1.40567 9.9158 0.871094 8.58168 0.871094 7.24755C0.871094 5.91343 1.40567 4.5793 2.39847 3.63757C4.30768 1.67562 7.43879 1.67562 9.34801 3.63757L9.65348 3.95148L9.95896 3.63757C10.8754 2.69583 12.1736 2.14648 13.4719 2.14648ZM9.65204 16.1154L15.8379 9.75869C16.5252 9.05238 16.9071 8.18913 16.9071 7.24739C16.9071 6.30565 16.5252 5.4424 15.9143 4.73609C15.2269 4.10827 14.3869 3.71588 13.4705 3.71588C12.4777 3.71588 11.6376 4.10827 10.9503 4.73609L10.1866 5.59935C9.88114 5.91326 9.42293 5.91326 9.11746 5.59935L8.2774 4.73609C7.59009 4.02979 6.75003 3.71588 5.83361 3.71588C4.99355 3.71588 4.07713 4.02979 3.46618 4.73609C2.85523 5.4424 2.47339 6.30565 2.47339 7.24739C2.47339 8.18913 2.77886 9.05238 3.46618 9.75869L9.65204 16.1154Z" fill="#EC1A25"/>
<mask id="mask0_87_1573" style="mask-type:luminance" maskUnits="userSpaceOnUse" x="0" y="2" width="19" height="16">
<path fill-rule="evenodd" clip-rule="evenodd" d="M13.4719 2.14648C14.7702 2.14648 15.9921 2.69583 16.9085 3.63757C17.9013 4.5793 18.4359 5.91343 18.2831 7.24755C18.2831 8.58168 17.7486 9.9158 16.8321 10.8575L10.1117 17.7636C9.95896 17.9206 9.80622 17.999 9.57712 17.999C9.34801 17.999 9.19527 17.9206 9.04253 17.7636L2.3221 10.8575C1.40567 9.9158 0.871094 8.58168 0.871094 7.24755C0.871094 5.91343 1.40567 4.5793 2.39847 3.63757C4.30768 1.67562 7.43879 1.67562 9.34801 3.63757L9.65348 3.95148L9.95896 3.63757C10.8754 2.69583 12.1736 2.14648 13.4719 2.14648ZM9.65204 16.1154L15.8379 9.75869C16.5252 9.05238 16.9071 8.18913 16.9071 7.24739C16.9071 6.30565 16.5252 5.4424 15.9143 4.73609C15.2269 4.10827 14.3869 3.71588 13.4705 3.71588C12.4777 3.71588 11.6376 4.10827 10.9503 4.73609L10.1866 5.59935C9.88114 5.91326 9.42293 5.91326 9.11746 5.59935L8.2774 4.73609C7.59009 4.02979 6.75003 3.71588 5.83361 3.71588C4.99355 3.71588 4.07713 4.02979 3.46618 4.73609C2.85523 5.4424 2.47339 6.30565 2.47339 7.24739C2.47339 8.18913 2.77886 9.05238 3.46618 9.75869L9.65204 16.1154Z" fill="white"/>
</mask>
<g mask="url(#mask0_87_1573)">
</g>
</svg>
