<svg width="20" height="17" viewBox="0 0 20 17" fill="none" xmlns="http://www.w3.org/2000/svg">
<path d="M13.4246 15.5305C12.4985 15.8481 11.5723 16.0068 10.6462 16.0068C7.19409 16.0068 3.91041 13.9426 2.73166 10.6874C2.56327 10.2904 2.81586 9.81407 3.23684 9.65528C3.65782 9.49649 4.163 9.73468 4.3314 10.1316C5.59435 13.4662 9.3832 15.2129 12.9195 14.022C16.4557 12.8311 18.3081 9.25831 17.0451 5.92374C16.4557 4.33584 15.1928 3.06553 13.593 2.27158C11.9933 1.55703 10.141 1.47764 8.45704 2.0334C7.53087 2.35098 6.60471 2.82735 5.93114 3.5419L3.48943 5.68555H6.43632C6.9415 5.68555 7.27828 6.00313 7.27828 6.4795C7.27828 6.95587 6.9415 7.27344 6.43632 7.27344H1.38451V7.27344C1.30031 7.27344 1.21612 7.27344 1.21612 7.27344H1.13192L1.04772 7.19405C0.963528 7.19405 0.963528 7.11465 0.879331 7.11465V7.11465C0.879331 7.11465 0.879331 7.03526 0.795134 7.03526C0.795134 6.95586 0.710938 6.95586 0.710938 6.87647C0.710938 6.79708 0.710938 6.71768 0.710938 6.71768V6.63829V1.71582C0.710938 1.23946 1.04772 0.921877 1.55291 0.921877C2.05809 0.921877 2.39487 1.23946 2.39487 1.71582V4.65342L4.92078 2.43037C5.76274 1.63643 6.8573 1.00127 8.03606 0.604299C10.141 -0.110253 12.4143 0.0485366 14.435 0.921877C16.4557 1.87461 17.9713 3.4625 18.729 5.44737C20.1604 9.57589 17.8029 14.1014 13.4246 15.5305Z" fill="#EC1A25"/>
</svg>
