<svg width="13" height="16" viewBox="0 0 13 16" fill="none" xmlns="http://www.w3.org/2000/svg">
<path fill-rule="evenodd" clip-rule="evenodd" d="M1.14898 0.308594H4.56524C5.07767 0.308594 5.4193 0.638594 5.4193 1.13359V14.3336C5.4193 14.8286 5.07767 15.1586 4.56524 15.1586H1.14898C0.636547 15.1586 0.294922 14.8286 0.294922 14.3336V1.13359C0.294922 0.638594 0.636547 0.308594 1.14898 0.308594ZM2.00305 13.5086H3.71117V1.95859H2.00305V13.5086ZM11.3977 0.308594H7.98149C7.46905 0.308594 7.12742 0.638594 7.12742 1.13359V14.3336C7.12742 14.8286 7.46905 15.1586 7.98149 15.1586H11.3977C11.9102 15.1586 12.2518 14.8286 12.2518 14.3336V1.13359C12.2518 0.638594 11.9102 0.308594 11.3977 0.308594ZM8.83555 13.5086H10.5437V1.95859H8.83555V13.5086Z" fill="white"/>
</svg>
