<svg width="20" height="14" viewBox="0 0 20 14" fill="none" xmlns="http://www.w3.org/2000/svg">
<path fill-rule="evenodd" clip-rule="evenodd" d="M2.25489 0.903861C2.00349 0.745424 1.66828 0.666206 1.41687 0.824642C1.08167 0.983079 0.914062 1.22073 0.914062 1.53761V12.6281C0.914062 12.945 1.08167 13.1827 1.41687 13.3411C1.50068 13.4203 1.66828 13.4203 1.75208 13.4203C1.91969 13.4203 2.08729 13.3411 2.25489 13.2619L9.79707 7.71662C9.96468 7.55818 10.1323 7.32053 10.1323 7.08287C10.1323 6.84522 10.0485 6.60756 9.79707 6.44913L2.25489 0.903861ZM11.4735 0.903861L19.0156 6.44913C19.267 6.60756 19.3508 6.84522 19.3508 7.08287C19.3508 7.32053 19.1832 7.55818 19.0156 7.71662L11.4735 13.2619C11.3059 13.3411 11.1383 13.4203 10.9706 13.4203C10.8868 13.4203 10.7192 13.4203 10.6354 13.3411C10.3002 13.1827 10.1326 12.945 10.1326 12.6281V7.08287V1.53761C10.1326 1.22073 10.3002 0.983079 10.5516 0.824642C10.8868 0.666206 11.2221 0.745424 11.4735 0.903861ZM17.1724 7.08414L11.8091 3.12323V11.045L17.1724 7.08414ZM7.94969 7.08414L2.58636 3.12323V11.045L7.94969 7.08414Z" fill="#EC1A25"/>
</svg>
