<svg width="12" height="16" viewBox="0 0 12 16" fill="none" xmlns="http://www.w3.org/2000/svg">
<path fill-rule="evenodd" clip-rule="evenodd" d="M1.10755 0.943359H4.45963C4.96244 0.943359 5.29765 1.26041 5.29765 1.73599V14.418C5.29765 14.8936 4.96244 15.2107 4.45963 15.2107H1.10755C0.604739 15.2107 0.269531 14.8936 0.269531 14.418V1.73599C0.269531 1.26041 0.604739 0.943359 1.10755 0.943359ZM1.94189 13.6239H3.61793V2.5271H1.94189V13.6239ZM11.1614 0.943359H7.80933C7.30652 0.943359 6.97131 1.26041 6.97131 1.73599V14.418C6.97131 14.8936 7.30652 15.2107 7.80933 15.2107H11.1614C11.6642 15.2107 11.9994 14.8936 11.9994 14.418V1.73599C11.9994 1.26041 11.6642 0.943359 11.1614 0.943359ZM8.65192 13.6239H10.328V2.5271H8.65192V13.6239Z" fill="white"/>
</svg>
