<svg width="21" height="20" viewBox="0 0 21 20" fill="none" xmlns="http://www.w3.org/2000/svg">
<path fill-rule="evenodd" clip-rule="evenodd" d="M14.3782 1.99805C15.6764 1.99805 16.8983 2.54739 17.8148 3.48913C18.8075 4.43086 19.3421 5.76499 19.1894 7.09911C19.1894 8.43324 18.6548 9.76737 17.7384 10.7091L11.0179 17.6152C10.8652 17.7721 10.7125 17.8506 10.4834 17.8506C10.2543 17.8506 10.1015 17.7721 9.94878 17.6152L3.22835 10.7091C2.31192 9.76737 1.77734 8.43324 1.77734 7.09911C1.77734 5.76499 2.31192 4.43086 3.30472 3.48913C5.21393 1.52718 8.34504 1.52718 10.2543 3.48913L10.5597 3.80304L10.8652 3.48913C11.7816 2.54739 13.0799 1.99805 14.3782 1.99805ZM10.5583 15.967L16.7441 9.61025C17.4315 8.90395 17.8133 8.04069 17.8133 7.09895C17.8133 6.15722 17.4315 5.29396 16.8205 4.58766C16.1332 3.95983 15.2931 3.56744 14.3767 3.56744C13.3839 3.56744 12.5439 3.95983 11.8566 4.58766L11.0929 5.45092C10.7874 5.76483 10.3292 5.76483 10.0237 5.45092L9.18365 4.58766C8.49634 3.88136 7.65628 3.56744 6.73986 3.56744C5.8998 3.56744 4.98338 3.88136 4.37243 4.58766C3.76148 5.29396 3.37964 6.15722 3.37964 7.09895C3.37964 8.04069 3.68511 8.90395 4.37243 9.61025L10.5583 15.967Z" fill="#EC1A25"/>
<mask id="mask0_87_1038" style="mask-type:luminance" maskUnits="userSpaceOnUse" x="1" y="1" width="19" height="17">
<path fill-rule="evenodd" clip-rule="evenodd" d="M14.3782 1.99805C15.6764 1.99805 16.8983 2.54739 17.8148 3.48913C18.8075 4.43086 19.3421 5.76499 19.1894 7.09911C19.1894 8.43324 18.6548 9.76737 17.7384 10.7091L11.0179 17.6152C10.8652 17.7721 10.7125 17.8506 10.4834 17.8506C10.2543 17.8506 10.1015 17.7721 9.94878 17.6152L3.22835 10.7091C2.31192 9.76737 1.77734 8.43324 1.77734 7.09911C1.77734 5.76499 2.31192 4.43086 3.30472 3.48913C5.21393 1.52718 8.34504 1.52718 10.2543 3.48913L10.5597 3.80304L10.8652 3.48913C11.7816 2.54739 13.0799 1.99805 14.3782 1.99805ZM10.5583 15.967L16.7441 9.61025C17.4315 8.90395 17.8133 8.04069 17.8133 7.09895C17.8133 6.15722 17.4315 5.29396 16.8205 4.58766C16.1332 3.95983 15.2931 3.56744 14.3767 3.56744C13.3839 3.56744 12.5439 3.95983 11.8566 4.58766L11.0929 5.45092C10.7874 5.76483 10.3292 5.76483 10.0237 5.45092L9.18365 4.58766C8.49634 3.88136 7.65628 3.56744 6.73986 3.56744C5.8998 3.56744 4.98338 3.88136 4.37243 4.58766C3.76148 5.29396 3.37964 6.15722 3.37964 7.09895C3.37964 8.04069 3.68511 8.90395 4.37243 9.61025L10.5583 15.967Z" fill="white"/>
</mask>
<g mask="url(#mask0_87_1038)">
</g>
</svg>
