<svg width="20" height="20" viewBox="0 0 20 20" fill="none" xmlns="http://www.w3.org/2000/svg">
<path fill-rule="evenodd" clip-rule="evenodd" d="M9.72198 5.95567C10.5939 5.95567 11.3072 5.2423 11.3072 4.37041C11.3072 3.49852 10.5939 2.78516 9.72198 2.78516C8.85008 2.78516 8.13672 3.49852 8.13672 4.37041C8.13672 5.2423 8.85008 5.95567 9.72198 5.95567ZM11.3072 9.91884C11.3072 10.7907 10.5939 11.5041 9.72198 11.5041C8.85008 11.5041 8.13672 10.7907 8.13672 9.91884C8.13672 9.04695 8.85008 8.33359 9.72198 8.33359C10.5939 8.33359 11.3072 9.04695 11.3072 9.91884ZM8.13672 15.4673C8.13672 14.5954 8.85008 13.882 9.72198 13.882C10.5939 13.882 11.3072 14.5954 11.3072 15.4673C11.3072 16.3392 10.5939 17.0526 9.72198 17.0526C8.85008 17.0526 8.13672 16.3392 8.13672 15.4673Z" fill="#131336"/>
<mask id="mask0_87_1029" style="mask-type:luminance" maskUnits="userSpaceOnUse" x="8" y="2" width="4" height="16">
<path fill-rule="evenodd" clip-rule="evenodd" d="M9.72198 5.95567C10.5939 5.95567 11.3072 5.2423 11.3072 4.37041C11.3072 3.49852 10.5939 2.78516 9.72198 2.78516C8.85008 2.78516 8.13672 3.49852 8.13672 4.37041C8.13672 5.2423 8.85008 5.95567 9.72198 5.95567ZM11.3072 9.91884C11.3072 10.7907 10.5939 11.5041 9.72198 11.5041C8.85008 11.5041 8.13672 10.7907 8.13672 9.91884C8.13672 9.04695 8.85008 8.33359 9.72198 8.33359C10.5939 8.33359 11.3072 9.04695 11.3072 9.91884ZM8.13672 15.4673C8.13672 14.5954 8.85008 13.882 9.72198 13.882C10.5939 13.882 11.3072 14.5954 11.3072 15.4673C11.3072 16.3392 10.5939 17.0526 9.72198 17.0526C8.85008 17.0526 8.13672 16.3392 8.13672 15.4673Z" fill="white"/>
</mask>
<g mask="url(#mask0_87_1029)">
</g>
</svg>
