<svg version="1.1" id="Capa_1" xmlns="http://www.w3.org/2000/svg" xmlns:xlink="http://www.w3.org/1999/xlink" x="0px" y="0px"
	 viewBox="0 0 394.69 394.69" style="enable-background:new 0 0 394.69 394.69;" xml:space="preserve">
<path d="M12.216 12.056L14.52 17H16.848L9.024 0.199999H7.824L0.72 17H1.824L3.936 12.056H12.216ZM11.712 10.976H4.392L7.848 2.888H7.944L11.712 10.976ZM23.1941 4.736C24.3621 4.736 25.2661 4.904 25.9061 5.24C26.5461 5.56 27.0101 5.984 27.2981 6.512C27.6021 7.04 27.7781 7.648 27.8261 8.336C27.8741 9.024 27.8981 9.728 27.8981 10.448V17H25.9541V15.824C25.4901 16.272 24.8981 16.632 24.1781 16.904C23.4581 17.16 22.7381 17.288 22.0181 17.288C21.3301 17.288 20.7221 17.168 20.1941 16.928C19.6661 16.688 19.2261 16.376 18.8741 15.992C18.5221 15.608 18.2581 15.176 18.0821 14.696C17.9061 14.216 17.8181 13.728 17.8181 13.232C17.8181 12.72 17.9141 12.208 18.1061 11.696C18.2981 11.184 18.5861 10.728 18.9701 10.328C19.3541 9.912 19.8261 9.576 20.3861 9.32C20.9461 9.064 21.5861 8.936 22.3061 8.936C23.0261 8.936 23.7061 9.08 24.3461 9.368C25.0021 9.64 25.5381 10.032 25.9541 10.544V9.512C25.9541 8.2 25.7541 7.224 25.3541 6.584C24.9701 5.944 24.2581 5.624 23.2181 5.624C22.7701 5.624 22.3781 5.68 22.0421 5.792C21.7061 5.904 21.4021 6.064 21.1301 6.272C20.8741 6.464 20.6341 6.712 20.4101 7.016C20.1861 7.304 19.9621 7.632 19.7381 8L18.4901 6.752C18.7141 6.512 18.9461 6.272 19.1861 6.032C19.4421 5.792 19.7461 5.576 20.0981 5.384C20.4661 5.192 20.8981 5.04 21.3941 4.928C21.8901 4.8 22.4901 4.736 23.1941 4.736ZM25.9541 12.248C25.8741 12.056 25.7541 11.832 25.5941 11.576C25.4501 11.32 25.2581 11.072 25.0181 10.832C24.7781 10.592 24.4901 10.392 24.1541 10.232C23.8181 10.056 23.4181 9.968 22.9541 9.968C22.4901 9.968 22.0661 10.064 21.6821 10.256C21.2981 10.432 20.9701 10.672 20.6981 10.976C20.4421 11.264 20.2421 11.608 20.0981 12.008C19.9541 12.408 19.8821 12.824 19.8821 13.256C19.8821 13.768 19.9701 14.216 20.1461 14.6C20.3381 14.968 20.5781 15.288 20.8661 15.56C21.1541 15.816 21.4741 16.008 21.8261 16.136C22.1781 16.264 22.5141 16.328 22.8341 16.328C23.1381 16.328 23.4421 16.272 23.7461 16.16C24.0661 16.048 24.3621 15.896 24.6341 15.704C24.9221 15.496 25.1781 15.256 25.4021 14.984C25.6261 14.712 25.8101 14.416 25.9541 14.096V12.248Z"></path>
</svg>
