<svg version="1.1" id="Capa_1" xmlns="http://www.w3.org/2000/svg" xmlns:xlink="http://www.w3.org/1999/xlink" x="0px" y="0px"
	 viewBox="0 0 394.69 394.69" style="enable-background:new 0 0 394.69 394.69;" xml:space="preserve">
<path d="M6.408 0.959999H9.768L16.032 18H12.624L11.04 13.752H5.088L3.528 18H0.12L6.408 0.959999ZM10.44 11.424L8.088 4.392L5.64 11.424H10.44ZM17.0175 14.28C17.0175 13.464 17.2415 12.752 17.6895 12.144C18.1535 11.52 18.7935 11.04 19.6095 10.704C20.4255 10.368 21.3615 10.2 22.4175 10.2C22.9455 10.2 23.4815 10.24 24.0255 10.32C24.5695 10.4 25.0415 10.528 25.4415 10.704V10.032C25.4415 9.232 25.2015 8.616 24.7215 8.184C24.2575 7.752 23.5615 7.536 22.6335 7.536C21.9455 7.536 21.2895 7.656 20.6655 7.896C20.0415 8.136 19.3855 8.488 18.6975 8.952L17.6655 6.84C18.4975 6.296 19.3455 5.888 20.2095 5.616C21.0895 5.344 22.0095 5.208 22.9695 5.208C24.7615 5.208 26.1535 5.656 27.1455 6.552C28.1535 7.448 28.6575 8.728 28.6575 10.392V14.4C28.6575 14.736 28.7135 14.976 28.8255 15.12C28.9535 15.264 29.1535 15.352 29.4255 15.384V18C29.1375 18.048 28.8735 18.088 28.6335 18.12C28.4095 18.152 28.2175 18.168 28.0575 18.168C27.4175 18.168 26.9295 18.024 26.5935 17.736C26.2735 17.448 26.0735 17.096 25.9935 16.68L25.9215 16.032C25.3775 16.736 24.6975 17.28 23.8815 17.664C23.0655 18.048 22.2335 18.24 21.3855 18.24C20.5535 18.24 19.8015 18.072 19.1295 17.736C18.4735 17.384 17.9535 16.912 17.5695 16.32C17.2015 15.712 17.0175 15.032 17.0175 14.28ZM24.8415 14.928C25.0175 14.736 25.1615 14.544 25.2735 14.352C25.3855 14.16 25.4415 13.984 25.4415 13.824V12.552C25.0575 12.392 24.6415 12.272 24.1935 12.192C23.7455 12.096 23.3215 12.048 22.9215 12.048C22.0895 12.048 21.4015 12.232 20.8575 12.6C20.3295 12.952 20.0655 13.424 20.0655 14.016C20.0655 14.336 20.1535 14.64 20.3295 14.928C20.5055 15.216 20.7615 15.448 21.0975 15.624C21.4335 15.8 21.8335 15.888 22.2975 15.888C22.7775 15.888 23.2495 15.8 23.7135 15.624C24.1775 15.432 24.5535 15.2 24.8415 14.928Z"></path>
</svg>
