<svg version="1.1" id="Capa_1" xmlns="http://www.w3.org/2000/svg" xmlns:xlink="http://www.w3.org/1999/xlink" x="0px" y="0px"
	 viewBox="0 0 394.69 394.69" style="enable-background:new 0 0 394.69 394.69;" xml:space="preserve">
<path d="M17.92 15.712C17.984 15.712 18.016 15.76 18.016 15.856C18.016 15.952 17.984 16 17.92 16C17.616 16 17.128 15.984 16.456 15.952C15.816 15.92 15.344 15.904 15.04 15.904C14.672 15.904 14.216 15.92 13.672 15.952C13.128 15.984 12.72 16 12.448 16C12.384 16 12.352 15.952 12.352 15.856C12.352 15.76 12.384 15.712 12.448 15.712C12.992 15.712 13.384 15.664 13.624 15.568C13.864 15.456 13.984 15.264 13.984 14.992C13.984 14.72 13.864 14.344 13.624 13.864L10.936 8.296H6.52L4.552 12.832C4.328 13.36 4.216 13.8 4.216 14.152C4.216 15.192 4.992 15.712 6.544 15.712C6.624 15.712 6.664 15.76 6.664 15.856C6.664 15.952 6.624 16 6.544 16C6.256 16 5.84 15.984 5.296 15.952C4.688 15.92 4.16 15.904 3.712 15.904C3.296 15.904 2.8 15.92 2.224 15.952C1.712 15.984 1.296 16 0.976 16C0.912 16 0.88 15.952 0.88 15.856C0.88 15.76 0.912 15.712 0.976 15.712C1.424 15.712 1.8 15.624 2.104 15.448C2.424 15.272 2.728 14.968 3.016 14.536C3.304 14.104 3.632 13.464 4 12.616L9.112 0.831999C9.128 0.783999 9.184 0.759999 9.28 0.759999C9.376 0.743999 9.432 0.767999 9.448 0.831999L15.232 12.712C15.776 13.88 16.24 14.672 16.624 15.088C17.008 15.504 17.44 15.712 17.92 15.712ZM6.736 7.744H10.672L8.608 3.424L6.736 7.744ZM27.9293 14.704C27.9933 14.704 28.0333 14.744 28.0493 14.824C28.0813 14.888 28.0653 14.936 28.0013 14.968L25.5293 16.144C25.4653 16.176 25.3933 16.192 25.3133 16.192C25.1053 16.192 24.9053 16.064 24.7133 15.808C24.5373 15.536 24.4173 15.168 24.3533 14.704L22.9853 15.448C22.0733 15.928 21.3133 16.168 20.7053 16.168C20.2093 16.168 19.8173 16.04 19.5293 15.784C19.2573 15.512 19.1213 15.16 19.1213 14.728C19.1213 14.264 19.2893 13.904 19.6253 13.648C19.9773 13.392 20.6173 13.104 21.5453 12.784L24.3053 11.824V9.88C24.3053 8.856 24.1773 8.128 23.9213 7.696C23.6813 7.248 23.3293 7.024 22.8653 7.024C22.3693 7.024 21.9773 7.208 21.6893 7.576C21.4173 7.928 21.2493 8.392 21.1853 8.968C21.1213 9.672 20.7693 10.024 20.1293 10.024C19.8413 10.024 19.6173 9.952 19.4573 9.808C19.2973 9.664 19.2173 9.464 19.2173 9.208C19.2173 8.824 19.4653 8.424 19.9613 8.008C20.4733 7.576 21.0813 7.224 21.7853 6.952C22.4893 6.664 23.1213 6.52 23.6813 6.52C24.3533 6.52 24.8973 6.744 25.3133 7.192C25.7293 7.624 25.9373 8.28 25.9373 9.16V13.408C25.9373 13.936 26.0093 14.328 26.1533 14.584C26.3133 14.84 26.5533 14.968 26.8733 14.968C27.1613 14.968 27.5053 14.88 27.9053 14.704H27.9293ZM24.3053 14.344V14.104V12.16L22.1933 12.952C21.8093 13.096 21.5293 13.264 21.3533 13.456C21.1933 13.632 21.1133 13.856 21.1133 14.128C21.1133 14.464 21.2093 14.728 21.4013 14.92C21.5933 15.112 21.8413 15.208 22.1453 15.208C22.4973 15.208 22.8493 15.112 23.2013 14.92L24.3053 14.344Z"></path>
</svg>
