<svg width="33" height="33" viewBox="0 0 33 33" fill="none" xmlns="http://www.w3.org/2000/svg">
<path d="M25.5773 8.59263C25.2295 8.17795 24.6543 8.05756 24.146 8.21808C23.0625 8.57925 21.8318 8.48561 20.7617 7.88366C19.6916 7.26833 18.996 6.2517 18.7552 5.14143C18.6348 4.60636 18.2335 4.16493 17.6984 4.08467C16.3607 3.87064 14.9696 3.87064 13.6051 4.09804C13.0701 4.19168 12.6821 4.61974 12.5618 5.15481C12.321 6.27845 11.6388 7.29508 10.5686 7.92379C9.49849 8.55249 8.26783 8.63275 7.18431 8.28496C6.676 8.12444 6.1008 8.24483 5.753 8.65951C4.88352 9.74302 4.2013 10.9469 3.73312 12.2177C3.54584 12.726 3.73312 13.2879 4.13442 13.6357C4.97715 14.4115 5.51222 15.5218 5.5256 16.7524C5.5256 17.9965 4.99053 19.0934 4.1478 19.8692C3.7465 20.2304 3.5726 20.7922 3.75987 21.2871C4.00065 21.9158 4.29494 22.5446 4.64274 23.1465C4.99053 23.7485 5.39183 24.3103 5.81989 24.832C6.16768 25.2466 6.74288 25.367 7.2512 25.2065C8.33471 24.8453 9.56537 24.939 10.6355 25.5409C11.7056 26.1563 12.4012 27.1729 12.642 28.2832C12.7624 28.8049 13.1503 29.2463 13.6854 29.3266C15.0365 29.5406 16.4143 29.5406 17.7787 29.3132C18.3138 29.2195 18.7017 28.7915 18.8221 28.2564C19.0628 27.1328 19.7451 26.1161 20.8152 25.4874C21.8853 24.8587 23.116 24.7785 24.1995 25.1263C24.7212 25.2868 25.2964 25.1664 25.6308 24.7383C26.5003 23.6548 27.1825 22.4509 27.6641 21.1801C27.8514 20.6718 27.6641 20.11 27.2628 19.7622C26.4067 18.9997 25.8716 17.8894 25.8582 16.6588C25.8582 15.4148 26.3933 14.3179 27.236 13.542C27.6373 13.1808 27.8112 12.619 27.624 12.1241C27.3832 11.4954 27.0889 10.8667 26.7411 10.2647C26.4067 9.66276 26.0054 9.11432 25.5773 8.59263Z" stroke="#252525" stroke-width="1.20391" stroke-miterlimit="10" stroke-linecap="round" stroke-linejoin="round"/>
<path d="M15.7056 20.6729C17.8924 20.6729 19.6651 18.9002 19.6651 16.7134C19.6651 14.5266 17.8924 12.7539 15.7056 12.7539C13.5188 12.7539 11.7461 14.5266 11.7461 16.7134C11.7461 18.9002 13.5188 20.6729 15.7056 20.6729Z" stroke="#252525" stroke-width="1.20391" stroke-miterlimit="10" stroke-linecap="round" stroke-linejoin="round"/>
</svg>
