<svg width="27" height="28" viewBox="0 0 27 28" fill="none" xmlns="http://www.w3.org/2000/svg">
<path d="M21.5254 7.26111C21.2365 6.91667 20.7587 6.81667 20.3365 6.95C19.4365 7.25 18.4143 7.17222 17.5254 6.67222C16.6365 6.16111 16.0587 5.31667 15.8587 4.39444C15.7587 3.95 15.4254 3.58333 14.9809 3.51667C13.8698 3.33889 12.7143 3.33889 11.5809 3.52778C11.1365 3.60555 10.8143 3.96111 10.7143 4.40555C10.5143 5.33889 9.94758 6.18333 9.0587 6.70555C8.16981 7.22778 7.14758 7.29444 6.24758 7.00555C5.82536 6.87222 5.34758 6.97222 5.0587 7.31667C4.33647 8.21667 3.76981 9.21667 3.38092 10.2722C3.22536 10.6944 3.38092 11.1611 3.71425 11.45C4.41425 12.0944 4.85869 13.0167 4.86981 14.0389C4.86981 15.0722 4.42536 15.9833 3.72536 16.6278C3.39203 16.9278 3.24758 17.3944 3.40314 17.8056C3.60314 18.3278 3.84758 18.85 4.13647 19.35C4.42536 19.85 4.75869 20.3167 5.11425 20.75C5.40314 21.0944 5.88092 21.1944 6.30314 21.0611C7.20314 20.7611 8.22536 20.8389 9.11425 21.3389C10.0031 21.85 10.5809 22.6944 10.7809 23.6167C10.8809 24.05 11.2031 24.4167 11.6476 24.4833C12.7698 24.6611 13.9143 24.6611 15.0476 24.4722C15.492 24.3944 15.8143 24.0389 15.9143 23.5944C16.1143 22.6611 16.6809 21.8167 17.5698 21.2944C18.4587 20.7722 19.4809 20.7056 20.3809 20.9944C20.8143 21.1278 21.292 21.0278 21.5698 20.6722C22.292 19.7722 22.8587 18.7722 23.2587 17.7167C23.4143 17.2944 23.2587 16.8278 22.9254 16.5389C22.2143 15.9056 21.7698 14.9833 21.7587 13.9611C21.7587 12.9278 22.2031 12.0167 22.9031 11.3722C23.2365 11.0722 23.3809 10.6056 23.2254 10.1944C23.0254 9.67222 22.7809 9.15 22.492 8.65C22.2143 8.15 21.8809 7.69444 21.5254 7.26111Z" stroke="#252525" stroke-miterlimit="10" stroke-linecap="round" stroke-linejoin="round"/>
<path d="M13.324 17.2944C15.1404 17.2944 16.6129 15.822 16.6129 14.0056C16.6129 12.1892 15.1404 10.7167 13.324 10.7167C11.5076 10.7167 10.0352 12.1892 10.0352 14.0056C10.0352 15.822 11.5076 17.2944 13.324 17.2944Z" stroke="#252525" stroke-miterlimit="10" stroke-linecap="round" stroke-linejoin="round"/>
</svg>
