<svg width="21" height="21" viewBox="0 0 21 21" fill="none" xmlns="http://www.w3.org/2000/svg">
<path d="M17.9014 4.31214C17.6356 3.99532 17.1962 3.90333 16.8078 4.02598C15.98 4.30192 15.0397 4.23038 14.2221 3.77047C13.4045 3.30035 12.8731 2.52363 12.6891 1.67536C12.5971 1.26656 12.2905 0.929295 11.8817 0.867974C10.8597 0.704453 9.79685 0.704453 8.7544 0.878194C8.3456 0.949735 8.04922 1.27678 7.95724 1.68558C7.77328 2.54407 7.25205 3.32079 6.43445 3.80113C5.61684 4.28148 4.6766 4.3428 3.84877 4.07708C3.46041 3.95443 3.02095 4.04642 2.75522 4.36324C2.09092 5.19106 1.5697 6.11087 1.21199 7.08178C1.06891 7.47014 1.21199 7.89938 1.5186 8.1651C2.16246 8.75787 2.57126 9.60613 2.58148 10.5464C2.58148 11.4968 2.17268 12.3349 1.52882 12.9277C1.22221 13.2036 1.08935 13.6328 1.23243 14.011C1.4164 14.4913 1.64124 14.9717 1.90696 15.4316C2.17268 15.8915 2.47928 16.3207 2.80632 16.7193C3.07205 17.0361 3.51151 17.1281 3.89987 17.0055C4.7277 16.7295 5.66794 16.8011 6.48555 17.261C7.30315 17.7311 7.8346 18.5078 8.01856 19.3561C8.11054 19.7547 8.40692 20.0919 8.81572 20.1532C9.84795 20.3168 10.9006 20.3168 11.9431 20.143C12.3519 20.0715 12.6482 19.7444 12.7402 19.3356C12.9242 18.4772 13.4454 17.7004 14.263 17.2201C15.0806 16.7397 16.0209 16.6784 16.8487 16.9441C17.2473 17.0668 17.6867 16.9748 17.9422 16.6478C18.6065 15.8199 19.1278 14.9001 19.4957 13.9292C19.6388 13.5409 19.4957 13.1116 19.1891 12.8459C18.535 12.2633 18.1262 11.4151 18.116 10.4748C18.116 9.52437 18.5248 8.68633 19.1687 8.09356C19.4753 7.81762 19.6081 7.38838 19.465 7.01023C19.2811 6.52989 19.0562 6.04955 18.7905 5.58965C18.535 5.12974 18.2284 4.71072 17.9014 4.31214Z" stroke="#252525" stroke-width="0.919806" stroke-miterlimit="10" stroke-linecap="round" stroke-linejoin="round"/>
<path d="M10.3586 13.541C12.0294 13.541 13.3838 12.1866 13.3838 10.5159C13.3838 8.84512 12.0294 7.49072 10.3586 7.49072C8.6879 7.49072 7.3335 8.84512 7.3335 10.5159C7.3335 12.1866 8.6879 13.541 10.3586 13.541Z" stroke="#252525" stroke-width="0.919806" stroke-miterlimit="10" stroke-linecap="round" stroke-linejoin="round"/>
</svg>
