<svg width="40" height="26" viewBox="0 0 40 26" fill="none" xmlns="http://www.w3.org/2000/svg">
<path d="M28.6263 6.61111L30.1368 6.10762C32.8623 5.1991 34.2251 4.74484 35.3099 5.01722C36.2594 5.25565 37.0817 5.84835 37.6082 6.67376C38.2096 7.61671 38.2096 9.05321 38.2096 11.9262V14.0738C38.2096 16.9468 38.2096 18.3833 37.6082 19.3262C37.0817 20.1517 36.2594 20.7444 35.3099 20.9828C34.2251 21.2552 32.8623 20.8009 30.1368 19.8924L28.6263 19.3889M7.9263 24.5H22.493C24.6398 24.5 25.7133 24.5 26.5333 24.0822C27.2546 23.7147 27.841 23.1283 28.2085 22.407C28.6263 21.587 28.6263 20.5135 28.6263 18.3667V7.63333C28.6263 5.48647 28.6263 4.41303 28.2085 3.59304C27.841 2.87175 27.2546 2.28532 26.5333 1.91781C25.7133 1.5 24.6398 1.5 22.493 1.5H7.9263C5.77943 1.5 4.706 1.5 3.886 1.91781C3.16472 2.28532 2.57829 2.87175 2.21078 3.59304C1.79297 4.41303 1.79297 5.48647 1.79297 7.63333V18.3667C1.79297 20.5135 1.79297 21.587 2.21078 22.407C2.57829 23.1283 3.16472 23.7147 3.886 24.0822C4.706 24.5 5.77943 24.5 7.9263 24.5Z" stroke="#EC1A25" stroke-width="2" stroke-linecap="round"/>
</svg>
