<svg width="38" height="36" viewBox="0 0 38 36" fill="none" xmlns="http://www.w3.org/2000/svg">
<path d="M13.25 7.50019C13.4977 7.5 13.7532 7.5 14.0167 7.5H23.9833C24.2468 7.5 24.5023 7.5 24.75 7.50019M13.25 7.50019C9.46132 7.50315 7.47541 7.55128 5.93607 8.33562C4.4935 9.07065 3.32065 10.2435 2.58562 11.6861C1.75 13.3261 1.75 15.4729 1.75 19.7667V22.0667C1.75 26.3604 1.75 28.5073 2.58562 30.1473C3.32065 31.5898 4.4935 32.7627 5.93607 33.4977C7.57606 34.3333 9.72293 34.3333 14.0167 34.3333H23.9833C28.2771 34.3333 30.4239 34.3333 32.0639 33.4977C33.5065 32.7627 34.6794 31.5898 35.4144 30.1473C36.25 28.5073 36.25 26.3604 36.25 22.0667V19.7667C36.25 15.4729 36.25 13.3261 35.4144 11.6861C34.6794 10.2435 33.5065 9.07065 32.0639 8.33562C30.5246 7.55128 28.5387 7.50315 24.75 7.50019M13.25 7.50019V5.58333C13.25 3.46624 14.9662 1.75 17.0833 1.75H20.9167C23.0338 1.75 24.75 3.46624 24.75 5.58333V7.50019M24.75 20.9167C24.75 24.0923 22.1756 26.6667 19 26.6667C15.8244 26.6667 13.25 24.0923 13.25 20.9167C13.25 17.741 15.8244 15.1667 19 15.1667C22.1756 15.1667 24.75 17.741 24.75 20.9167Z" stroke="#EC1A25" stroke-width="2" stroke-linecap="round"/>
</svg>
