<svg version="1.1" id="Capa_1" xmlns="http://www.w3.org/2000/svg" xmlns:xlink="http://www.w3.org/1999/xlink" x="0px" y="0px"
	 viewBox="0 0 394.69 394.69" style="enable-background:new 0 0 394.69 394.69;" xml:space="preserve">
<path d="M13.32 12.272H3.576L1.44 17H0.12L7.848 0.199999H9.072L16.8 17H15.48L13.32 12.272ZM12.864 11.24L8.448 1.544L4.056 11.24H12.864ZM23.6899 4.376C25.2419 4.376 26.4339 4.776 27.2659 5.576C28.0979 6.36 28.5139 7.52 28.5139 9.056V17H27.3619V14.768C26.9619 15.504 26.3779 16.08 25.6099 16.496C24.8419 16.896 23.9219 17.096 22.8499 17.096C21.4579 17.096 20.3539 16.768 19.5379 16.112C18.7379 15.456 18.3379 14.592 18.3379 13.52C18.3379 12.48 18.7059 11.64 19.4419 11C20.1939 10.344 21.3859 10.016 23.0179 10.016H27.3139V9.008C27.3139 7.84 26.9939 6.952 26.3539 6.344C25.7299 5.736 24.8099 5.432 23.5939 5.432C22.7619 5.432 21.9619 5.576 21.1939 5.864C20.4419 6.152 19.8019 6.536 19.2739 7.016L18.6739 6.152C19.2979 5.592 20.0499 5.16 20.9299 4.856C21.8099 4.536 22.7299 4.376 23.6899 4.376ZM23.0179 16.112C24.0579 16.112 24.9379 15.872 25.6579 15.392C26.3939 14.912 26.9459 14.216 27.3139 13.304V10.952H23.0419C21.8099 10.952 20.9139 11.176 20.3539 11.624C19.8099 12.072 19.5379 12.688 19.5379 13.472C19.5379 14.288 19.8419 14.936 20.4499 15.416C21.0579 15.88 21.9139 16.112 23.0179 16.112Z"></path>
</svg>
