<svg version="1.1" id="Capa_1" xmlns="http://www.w3.org/2000/svg" xmlns:xlink="http://www.w3.org/1999/xlink" x="0px" y="0px"
	 viewBox="0 0 394.69 394.69" style="enable-background:new 0 0 394.69 394.69;" xml:space="preserve">
<path d="M14.232 15.512L7.8 0.199999H6.6V0.415999C7.272 0.487999 7.176 0.967999 6.912 1.688L1.632 15.656C1.344 16.352 1.104 16.664 0.48 16.784V17H2.448V16.784C1.8 16.688 1.68 16.28 1.968 15.512L3.6 11.192H11.544L13.368 15.512C13.704 16.304 13.512 16.688 12.888 16.784V17H15.48V16.784C14.832 16.688 14.544 16.232 14.232 15.512ZM3.72 10.904L7.368 1.256L11.424 10.904H3.72ZM26.9049 16.496C26.5209 17 25.6089 16.928 25.6089 15.992V9.392C25.6089 6.2 23.4249 5.336 21.3129 5.408C19.7769 5.48 18.5529 5.984 17.9769 7.136C17.7369 7.616 17.7129 8.144 18.1689 8.264C18.6489 8.384 18.9129 8.048 18.8889 7.544C18.8649 6.344 20.1849 5.672 21.3849 5.672C23.2329 5.672 24.7929 6.488 24.7929 9.128C24.7929 9.128 24.7929 9.632 24.7929 10.352C24.7929 10.352 22.9209 10.472 20.5689 10.664C18.3849 10.856 16.8009 12.296 16.9449 14.408C17.0649 16.16 18.6489 17.24 20.6889 17.24C22.9209 17.24 24.3849 15.776 24.7929 14.36C24.7929 15.104 24.7929 15.68 24.7929 15.896C24.7929 16.832 25.2489 17.24 26.0169 17.24C26.5209 17.24 26.8569 16.904 27.0009 16.64L26.9049 16.496ZM21.3369 16.808C19.4409 16.976 17.8329 16.136 17.6889 14.288C17.5449 12.296 19.0089 11.144 21.2169 10.904C23.1369 10.688 24.7929 10.616 24.7929 10.616C24.7929 11.24 24.7929 12.008 24.7929 12.776C24.7929 14.72 23.6169 16.616 21.3369 16.808Z"></path>
</svg>
