<svg width="12" height="11" viewBox="0 0 12 11" fill="none" xmlns="http://www.w3.org/2000/svg">
<path d="M10.1403 0.960007C10.0886 0.910765 10.0272 0.871704 9.95969 0.845054C9.89213 0.818404 9.81973 0.804688 9.74661 0.804688C9.59895 0.804688 9.45733 0.860558 9.35291 0.960007C9.24849 1.05946 9.18983 1.19434 9.18983 1.33498C9.18983 1.47563 9.24849 1.61051 9.35291 1.70996L10.0738 2.39125H1.42889C1.28182 2.39125 1.14078 2.44689 1.03679 2.54594C0.932796 2.64498 0.874374 2.77931 0.874374 2.91938C0.874374 3.05945 0.932796 3.19379 1.03679 3.29283C1.14078 3.39187 1.28182 3.44752 1.42889 3.44752H10.0738L9.35291 4.12881C9.30094 4.17791 9.25968 4.23632 9.23153 4.30068C9.20338 4.36503 9.18888 4.43406 9.18888 4.50378C9.18888 4.5735 9.20338 4.64253 9.23153 4.70689C9.25968 4.77125 9.30094 4.82966 9.35291 4.87876C9.40446 4.92826 9.46579 4.96755 9.53336 4.99436C9.60093 5.02118 9.67341 5.03498 9.74661 5.03498C9.81982 5.03498 9.8923 5.02118 9.95987 4.99436C10.0274 4.96755 10.0888 4.92826 10.1403 4.87876L11.8039 3.29436C11.8558 3.24526 11.8971 3.18685 11.9252 3.12249C11.9534 3.05813 11.9679 2.9891 11.9679 2.91938C11.9679 2.84966 11.9534 2.78063 11.9252 2.71628C11.8971 2.65192 11.8558 2.59351 11.8039 2.54441L10.1403 0.960007Z" fill="black"/>
<path d="M11.4101 7.67249H2.7652L3.48607 6.99119C3.59049 6.89174 3.64915 6.75686 3.64915 6.61622C3.64915 6.47557 3.59049 6.34069 3.48607 6.24124C3.38166 6.14179 3.24004 6.08592 3.09237 6.08592C2.9447 6.08592 2.80308 6.14179 2.69866 6.24124L1.03512 7.82564C0.983145 7.87474 0.941892 7.93315 0.91374 7.99751C0.885588 8.06187 0.871094 8.1309 0.871094 8.20062C0.871094 8.27034 0.885588 8.33937 0.91374 8.40373C0.941892 8.46809 0.983145 8.5265 1.03512 8.57559L2.69866 10.16C2.75021 10.2095 2.81154 10.2488 2.87912 10.2756C2.94669 10.3024 3.01917 10.3162 3.09237 10.3162C3.16557 10.3162 3.23805 10.3024 3.30562 10.2756C3.37319 10.2488 3.43452 10.2095 3.48607 10.16C3.53805 10.1109 3.5793 10.0525 3.60745 9.98813C3.6356 9.92377 3.6501 9.85474 3.6501 9.78502C3.6501 9.7153 3.6356 9.64627 3.60745 9.58191C3.5793 9.51756 3.53805 9.45914 3.48607 9.41005L2.7652 8.72875H11.4101C11.5572 8.72875 11.6982 8.67311 11.8022 8.57407C11.9062 8.47502 11.9646 8.34069 11.9646 8.20062C11.9646 8.06055 11.9062 7.92622 11.8022 7.82717C11.6982 7.72813 11.5572 7.67249 11.4101 7.67249Z" fill="black"/>
</svg>
