<svg width="11" height="9" viewBox="0 0 11 9" fill="none" xmlns="http://www.w3.org/2000/svg">
<path d="M8.88171 0.154865C8.83646 0.111765 8.78274 0.077577 8.72361 0.0542517C8.66449 0.0309263 8.60112 0.0189209 8.53712 0.0189209C8.40788 0.0189209 8.28392 0.0678215 8.19253 0.154865C8.10114 0.241909 8.0498 0.359965 8.0498 0.483063C8.0498 0.606161 8.10114 0.724218 8.19253 0.811261L8.82347 1.40757H1.25701C1.12829 1.40757 1.00484 1.45627 0.913823 1.54296C0.822804 1.62964 0.77167 1.74722 0.77167 1.86982C0.77167 1.99241 0.822804 2.10999 0.913823 2.19668C1.00484 2.28337 1.12829 2.33207 1.25701 2.33207H8.82347L8.19253 2.92837C8.14704 2.97134 8.11093 3.02247 8.08629 3.0788C8.06165 3.13513 8.04897 3.19555 8.04897 3.25657C8.04897 3.31759 8.06165 3.37801 8.08629 3.43434C8.11093 3.49067 8.14704 3.54179 8.19253 3.58477C8.23765 3.62809 8.29133 3.66248 8.35047 3.68595C8.40962 3.70942 8.47305 3.7215 8.53712 3.7215C8.60119 3.7215 8.66463 3.70942 8.72377 3.68595C8.78292 3.66248 8.8366 3.62809 8.88171 3.58477L10.3377 2.19801C10.3832 2.15504 10.4193 2.10392 10.444 2.04759C10.4686 1.99126 10.4813 1.93084 10.4813 1.86982C10.4813 1.80879 10.4686 1.74837 10.444 1.69205C10.4193 1.63572 10.3832 1.58459 10.3377 1.54162L8.88171 0.154865Z" fill="black"/>
<path d="M9.99309 6.02999H2.42662L3.05757 5.43368C3.14896 5.34664 3.2003 5.22858 3.2003 5.10548C3.2003 4.98238 3.14896 4.86433 3.05757 4.77728C2.96618 4.69024 2.84222 4.64134 2.71298 4.64134C2.58373 4.64134 2.45978 4.69024 2.36838 4.77728L0.912362 6.16404C0.866872 6.20701 0.830765 6.25814 0.806125 6.31447C0.781485 6.37079 0.768799 6.43121 0.768799 6.49224C0.768799 6.55326 0.781485 6.61368 0.806125 6.67001C0.830765 6.72634 0.866872 6.77746 0.912362 6.82043L2.36838 8.20719C2.4135 8.25051 2.46718 8.2849 2.52632 8.30837C2.58547 8.33184 2.64891 8.34392 2.71298 8.34392C2.77705 8.34392 2.84048 8.33184 2.89963 8.30837C2.95877 8.2849 3.01245 8.25051 3.05757 8.20719C3.10306 8.16421 3.13916 8.11309 3.1638 8.05676C3.18844 8.00043 3.20113 7.94001 3.20113 7.87899C3.20113 7.81797 3.18844 7.75755 3.1638 7.70122C3.13916 7.64489 3.10306 7.59376 3.05757 7.55079L2.42662 6.95449H9.99309C10.1218 6.95449 10.2453 6.90579 10.3363 6.8191C10.4273 6.73241 10.4784 6.61483 10.4784 6.49224C10.4784 6.36964 10.4273 6.25206 10.3363 6.16537C10.2453 6.07869 10.1218 6.02999 9.99309 6.02999Z" fill="black"/>
</svg>
