<svg width="10" height="10" viewBox="0 0 10 10" fill="none" xmlns="http://www.w3.org/2000/svg">
<path d="M0.568848 3.81513C0.568848 4.82195 0.968804 5.78753 1.68073 6.49946C2.39266 7.21138 3.35824 7.61134 4.36506 7.61134C5.20813 7.61239 6.02706 7.32994 6.69024 6.80939L8.77341 8.89731C8.81752 8.94178 8.87 8.97708 8.92783 9.00118C8.98565 9.02527 9.04768 9.03767 9.11032 9.03767C9.17296 9.03767 9.23499 9.02527 9.29281 9.00118C9.35064 8.97708 9.40312 8.94178 9.44723 8.89731C9.49171 8.85319 9.52701 8.80071 9.5511 8.74288C9.57519 8.68506 9.5876 8.62304 9.5876 8.56039C9.5876 8.49775 9.57519 8.43573 9.5511 8.3779C9.52701 8.32008 9.49171 8.26759 9.44723 8.22348L7.35932 6.14031C7.87987 5.47714 8.16232 4.6582 8.16127 3.81513C8.16127 2.80831 7.76131 1.84273 7.04938 1.13081C6.33746 0.418878 5.37187 0.0189209 4.36506 0.0189209C3.35824 0.0189209 2.39266 0.418878 1.68073 1.13081C0.968804 1.84273 0.568848 2.80831 0.568848 3.81513ZM4.36506 0.967973C4.92817 0.967973 5.47864 1.13496 5.94685 1.44781C6.41507 1.76066 6.77999 2.20532 6.99549 2.72557C7.21098 3.24582 7.26737 3.81829 7.15751 4.37058C7.04765 4.92288 6.77648 5.43019 6.3783 5.82837C5.98012 6.22656 5.4728 6.49772 4.92051 6.60758C4.36822 6.71744 3.79575 6.66106 3.2755 6.44556C2.75525 6.23007 2.31058 5.86514 1.99773 5.39693C1.68488 4.92871 1.5179 4.37825 1.5179 3.81513C1.5179 3.06002 1.81787 2.33583 2.35181 1.80189C2.88576 1.26794 3.60994 0.967973 4.36506 0.967973Z" fill="black"/>
</svg>
