<svg width="12" height="11" viewBox="0 0 12 11" fill="none" xmlns="http://www.w3.org/2000/svg">
<path d="M9.98571 0.653633C9.93132 0.601829 9.86675 0.560736 9.79568 0.5327C9.72462 0.504664 9.64845 0.490234 9.57153 0.490234C9.41618 0.490234 9.26719 0.549011 9.15734 0.653633C9.0475 0.758255 8.98578 0.900153 8.98578 1.04811C8.98578 1.19607 9.0475 1.33797 9.15734 1.44259L9.91571 2.15932H0.821182C0.666467 2.15932 0.518088 2.21785 0.408687 2.32205C0.299287 2.42625 0.237826 2.56757 0.237826 2.71492C0.237826 2.86228 0.299287 3.0036 0.408687 3.10779C0.518088 3.21199 0.666467 3.27052 0.821182 3.27052H9.91571L9.15734 3.98725C9.10267 4.0389 9.05927 4.10035 9.02965 4.16806C9.00004 4.23576 8.98479 4.30839 8.98479 4.38173C8.98479 4.45508 9.00004 4.5277 9.02965 4.5954C9.05927 4.66311 9.10267 4.72456 9.15734 4.77621C9.21157 4.82829 9.27609 4.86962 9.34718 4.89783C9.41827 4.92603 9.49452 4.94056 9.57153 4.94056C9.64854 4.94056 9.72478 4.92603 9.79587 4.89783C9.86696 4.86962 9.93148 4.82829 9.98571 4.77621L11.7358 3.1094C11.7905 3.05775 11.8339 2.9963 11.8635 2.92859C11.8931 2.86089 11.9083 2.78827 11.9083 2.71492C11.9083 2.64158 11.8931 2.56895 11.8635 2.50125C11.8339 2.43354 11.7905 2.37209 11.7358 2.32044L9.98571 0.653633Z" fill="black"/>
<path d="M11.3215 7.71525H2.227L2.98536 6.99852C3.09521 6.89389 3.15693 6.752 3.15693 6.60404C3.15693 6.45608 3.09521 6.31418 2.98536 6.20956C2.87552 6.10494 2.72653 6.04616 2.57118 6.04616C2.41583 6.04616 2.26685 6.10494 2.157 6.20956L0.406931 7.87637C0.352254 7.92802 0.308855 7.98947 0.279239 8.05718C0.249623 8.12488 0.234375 8.1975 0.234375 8.27085C0.234375 8.34419 0.249623 8.41682 0.279239 8.48452C0.308855 8.55223 0.352254 8.61368 0.406931 8.66533L2.157 10.3321C2.21123 10.3842 2.27575 10.4255 2.34684 10.4538C2.41792 10.482 2.49417 10.4965 2.57118 10.4965C2.64819 10.4965 2.72444 10.482 2.79553 10.4538C2.86661 10.4255 2.93113 10.3842 2.98536 10.3321C3.04004 10.2805 3.08344 10.219 3.11306 10.1513C3.14267 10.0836 3.15792 10.011 3.15792 9.93766C3.15792 9.86431 3.14267 9.79169 3.11306 9.72399C3.08344 9.65628 3.04004 9.59483 2.98536 9.54318L2.227 8.82645H11.3215C11.4762 8.82645 11.6246 8.76792 11.734 8.66372C11.8434 8.55952 11.9049 8.4182 11.9049 8.27085C11.9049 8.12349 11.8434 7.98217 11.734 7.87798C11.6246 7.77378 11.4762 7.71525 11.3215 7.71525Z" fill="black"/>
</svg>
