<svg width="15" height="15" viewBox="0 0 15 15" fill="none" xmlns="http://www.w3.org/2000/svg">
<path d="M13.6633 13.3163H0.82274C0.633544 13.3163 0.452097 13.3954 0.318315 13.5362C0.184533 13.677 0.109375 13.868 0.109375 14.0672C0.109375 14.2663 0.184533 14.4573 0.318315 14.5981C0.452097 14.739 0.633544 14.8181 0.82274 14.8181H13.6633C13.8525 14.8181 14.034 14.739 14.1677 14.5981C14.3015 14.4573 14.3767 14.2663 14.3767 14.0672C14.3767 13.868 14.3015 13.677 14.1677 13.5362C14.034 13.3954 13.8525 13.3163 13.6633 13.3163Z" fill="#252525"/>
<path d="M7.24311 0.550781C7.05391 0.550781 6.87247 0.629895 6.73869 0.770719C6.6049 0.911543 6.52975 1.10254 6.52975 1.3017V9.25387L4.18277 6.77586C4.04844 6.63446 3.86625 6.55502 3.67628 6.55502C3.48631 6.55502 3.30412 6.63446 3.16979 6.77586C3.03547 6.91726 2.96 7.10904 2.96 7.30901C2.96 7.50898 3.03547 7.70076 3.16979 7.84216L6.73662 11.5967C6.80294 11.6671 6.88184 11.723 6.96877 11.7611C7.0557 11.7992 7.14894 11.8188 7.24311 11.8188C7.33728 11.8188 7.43052 11.7992 7.51745 11.7611C7.60438 11.723 7.68328 11.6671 7.7496 11.5967L11.3164 7.84216C11.3829 7.77214 11.4357 7.68902 11.4717 7.59755C11.5077 7.50607 11.5262 7.40802 11.5262 7.30901C11.5262 7.20999 11.5077 7.11195 11.4717 7.02047C11.4357 6.92899 11.3829 6.84587 11.3164 6.77586C11.2499 6.70584 11.171 6.65031 11.084 6.61241C10.9971 6.57452 10.904 6.55502 10.8099 6.55502C10.7159 6.55502 10.6227 6.57452 10.5358 6.61241C10.4489 6.65031 10.37 6.70584 10.3034 6.77586L7.95648 9.25387V1.3017C7.95648 1.10254 7.88132 0.911543 7.74754 0.770719C7.61375 0.629895 7.43231 0.550781 7.24311 0.550781Z" fill="#252525"/>
</svg>
