<svg width="15" height="16" viewBox="0 0 15 16" fill="none" xmlns="http://www.w3.org/2000/svg">
<path d="M13.6633 13.5545H0.82274C0.633544 13.5545 0.452097 13.6336 0.318315 13.7745C0.184533 13.9153 0.109375 14.1063 0.109375 14.3054C0.109375 14.5046 0.184533 14.6956 0.318315 14.8364C0.452097 14.9772 0.633544 15.0564 0.82274 15.0564H13.6633C13.8525 15.0564 14.034 14.9772 14.1677 14.8364C14.3015 14.6956 14.3767 14.5046 14.3767 14.3054C14.3767 14.1063 14.3015 13.9153 14.1677 13.7745C14.034 13.6336 13.8525 13.5545 13.6633 13.5545Z" fill="#252525"/>
<path d="M7.24311 0.789062C7.05391 0.789063 6.87247 0.868176 6.73869 1.009C6.6049 1.14982 6.52975 1.34082 6.52975 1.53998V9.49216L4.18277 7.01414C4.04844 6.87274 3.86625 6.7933 3.67628 6.7933C3.48631 6.7933 3.30412 6.87274 3.16979 7.01414C3.03547 7.15554 2.96 7.34732 2.96 7.54729C2.96 7.74726 3.03547 7.93904 3.16979 8.08044L6.73662 11.835C6.80294 11.9054 6.88184 11.9613 6.96877 11.9994C7.0557 12.0375 7.14894 12.0571 7.24311 12.0571C7.33728 12.0571 7.43052 12.0375 7.51745 11.9994C7.60438 11.9613 7.68328 11.9054 7.7496 11.835L11.3164 8.08044C11.3829 8.01042 11.4357 7.9273 11.4717 7.83583C11.5077 7.74435 11.5262 7.6463 11.5262 7.54729C11.5262 7.44827 11.5077 7.35023 11.4717 7.25875C11.4357 7.16727 11.3829 7.08415 11.3164 7.01414C11.2499 6.94412 11.171 6.88859 11.084 6.8507C10.9971 6.8128 10.904 6.7933 10.8099 6.7933C10.7159 6.7933 10.6227 6.8128 10.5358 6.8507C10.4489 6.88859 10.37 6.94412 10.3034 7.01414L7.95648 9.49216V1.53998C7.95648 1.34082 7.88132 1.14982 7.74754 1.009C7.61375 0.868176 7.43231 0.789063 7.24311 0.789062Z" fill="#252525"/>
</svg>
