<svg width="10" height="10" viewBox="0 0 10 10" fill="none" xmlns="http://www.w3.org/2000/svg">
<path d="M7.6801 9.87482C8.0528 9.87482 8.41024 9.72946 8.67377 9.47071C8.93731 9.21196 9.08536 8.86103 9.08536 8.49511V2.05647C9.08536 1.69055 8.93731 1.33961 8.67377 1.08087C8.41024 0.82212 8.0528 0.676758 7.6801 0.676758H2.05907C1.68637 0.676758 1.32894 0.82212 1.0654 1.08087C0.801862 1.33961 0.653809 1.69055 0.653809 2.05647V8.49511C0.653809 8.86103 0.801862 9.21196 1.0654 9.47071C1.32894 9.72946 1.68637 9.87482 2.05907 9.87482H7.6801ZM1.59065 2.05647C1.59065 1.93449 1.64 1.81751 1.72785 1.73127C1.81569 1.64502 1.93484 1.59656 2.05907 1.59656H7.6801C7.80434 1.59656 7.92348 1.64502 8.01133 1.73127C8.09917 1.81751 8.14852 1.93449 8.14852 2.05647V5.08723L7.07584 4.02945C7.0323 3.98634 6.98049 3.95213 6.92341 3.92878C6.86633 3.90543 6.8051 3.89341 6.74327 3.89341C6.68143 3.89341 6.6202 3.90543 6.56312 3.92878C6.50604 3.95213 6.45423 3.98634 6.41069 4.02945L4.40117 6.00703L3.32849 4.94926C3.28494 4.90615 3.23313 4.87194 3.17605 4.84859C3.11897 4.82524 3.05774 4.81322 2.99591 4.81322C2.93407 4.81322 2.87285 4.82524 2.81576 4.84859C2.75868 4.87194 2.70688 4.90615 2.66333 4.94926L1.59065 6.00703V2.05647ZM1.59065 8.49511V7.30396L2.99591 5.92425L4.06859 6.98203C4.11213 7.02513 4.16394 7.05935 4.22102 7.0827C4.2781 7.10605 4.33933 7.11807 4.40117 7.11807C4.463 7.11807 4.52423 7.10605 4.58131 7.0827C4.63839 7.05935 4.6902 7.02513 4.73374 6.98203L6.74327 5.00445L8.14852 6.38415V8.49511C8.14852 8.61708 8.09917 8.73406 8.01133 8.82031C7.92348 8.90656 7.80434 8.95501 7.6801 8.95501H2.05907C1.93484 8.95501 1.81569 8.90656 1.72785 8.82031C1.64 8.73406 1.59065 8.61708 1.59065 8.49511Z" fill="black"/>
</svg>
