<svg width="15" height="15" viewBox="0 0 15 15" fill="none" xmlns="http://www.w3.org/2000/svg">
<path d="M13.6633 12.8592H0.82274C0.633544 12.8592 0.452097 12.9383 0.318315 13.0792C0.184533 13.22 0.109375 13.411 0.109375 13.6101C0.109375 13.8093 0.184533 14.0003 0.318315 14.1411C0.452097 14.2819 0.633544 14.361 0.82274 14.361H13.6633C13.8525 14.361 14.034 14.2819 14.1677 14.1411C14.3015 14.0003 14.3767 13.8093 14.3767 13.6101C14.3767 13.411 14.3015 13.22 14.1677 13.0792C14.034 12.9383 13.8525 12.8592 13.6633 12.8592Z" fill="#252525"/>
<path d="M7.24311 0.09375C7.05391 0.09375 6.87247 0.172864 6.73869 0.313688C6.6049 0.454511 6.52975 0.645509 6.52975 0.844664V8.79684L4.18277 6.31883C4.04844 6.17743 3.86625 6.09799 3.67628 6.09799C3.48631 6.09799 3.30412 6.17743 3.16979 6.31883C3.03547 6.46023 2.96 6.65201 2.96 6.85198C2.96 7.05195 3.03547 7.24372 3.16979 7.38512L6.73662 11.1397C6.80294 11.2101 6.88184 11.2659 6.96877 11.3041C7.0557 11.3422 7.14894 11.3618 7.24311 11.3618C7.33728 11.3618 7.43052 11.3422 7.51745 11.3041C7.60438 11.2659 7.68328 11.2101 7.7496 11.1397L11.3164 7.38512C11.3829 7.31511 11.4357 7.23199 11.4717 7.14051C11.5077 7.04904 11.5262 6.95099 11.5262 6.85198C11.5262 6.75296 11.5077 6.65492 11.4717 6.56344C11.4357 6.47196 11.3829 6.38884 11.3164 6.31883C11.2499 6.24881 11.171 6.19327 11.084 6.15538C10.9971 6.11749 10.904 6.09799 10.8099 6.09799C10.7159 6.09799 10.6227 6.11749 10.5358 6.15538C10.4489 6.19327 10.37 6.24881 10.3034 6.31883L7.95648 8.79684V0.844664C7.95648 0.645509 7.88132 0.454511 7.74754 0.313688C7.61375 0.172864 7.43231 0.09375 7.24311 0.09375Z" fill="#252525"/>
</svg>
