<svg width="15" height="15" viewBox="0 0 15 15" fill="none" xmlns="http://www.w3.org/2000/svg">
<path d="M14.0305 13.0116H1.18993C1.00073 13.0116 0.819284 13.0907 0.685502 13.2315C0.55172 13.3723 0.476563 13.5633 0.476562 13.7625C0.476563 13.9616 0.55172 14.1526 0.685502 14.2935C0.819284 14.4343 1.00073 14.5134 1.18993 14.5134H14.0305C14.2197 14.5134 14.4012 14.4343 14.5349 14.2935C14.6687 14.1526 14.7439 13.9616 14.7439 13.7625C14.7439 13.5633 14.6687 13.3723 14.5349 13.2315C14.4012 13.0907 14.2197 13.0116 14.0305 13.0116Z" fill="#252525"/>
<path d="M7.6103 0.246094C7.4211 0.246094 7.23965 0.325208 7.10587 0.466031C6.97209 0.606855 6.89693 0.797853 6.89693 0.997008V8.94919L4.54996 6.47117C4.41563 6.32977 4.23344 6.25033 4.04347 6.25033C3.8535 6.25033 3.67131 6.32977 3.53698 6.47117C3.40265 6.61257 3.32719 6.80435 3.32719 7.00432C3.32719 7.20429 3.40265 7.39607 3.53698 7.53747L7.10381 11.292C7.17013 11.3624 7.24902 11.4183 7.33595 11.4564C7.42288 11.4945 7.51613 11.5142 7.6103 11.5142C7.70447 11.5142 7.79771 11.4945 7.88464 11.4564C7.97157 11.4183 8.05047 11.3624 8.11679 11.292L11.6836 7.53747C11.7501 7.46745 11.8029 7.38434 11.8389 7.29286C11.8749 7.20138 11.8934 7.10333 11.8934 7.00432C11.8934 6.9053 11.8749 6.80726 11.8389 6.71578C11.8029 6.6243 11.7501 6.54118 11.6836 6.47117C11.6171 6.40116 11.5381 6.34562 11.4512 6.30773C11.3643 6.26984 11.2712 6.25033 11.1771 6.25033C11.0831 6.25033 10.9899 6.26984 10.903 6.30773C10.8161 6.34562 10.7371 6.40116 10.6706 6.47117L8.32366 8.94919V0.997008C8.32366 0.797853 8.24851 0.606855 8.11472 0.466031C7.98094 0.325208 7.79949 0.246094 7.6103 0.246094Z" fill="#252525"/>
</svg>
