<svg width="11" height="14" viewBox="0 0 11 14" fill="none" xmlns="http://www.w3.org/2000/svg">
<path d="M8.9948 13.9227C9.43993 13.9227 9.86682 13.718 10.1816 13.3536C10.4963 12.9893 10.6732 12.4951 10.6732 11.9798V2.91309C10.6732 2.3978 10.4963 1.90363 10.1816 1.53927C9.86682 1.17491 9.43993 0.970215 8.9948 0.970215H2.28138C1.83625 0.970215 1.40936 1.17491 1.09461 1.53927C0.779854 1.90363 0.603027 2.3978 0.603027 2.91309V11.9798C0.603027 12.4951 0.779854 12.9893 1.09461 13.3536C1.40936 13.718 1.83625 13.9227 2.28138 13.9227H8.9948ZM1.72193 2.91309C1.72193 2.74133 1.78087 2.5766 1.88579 2.45515C1.99071 2.33369 2.13301 2.26546 2.28138 2.26546H8.9948C9.14318 2.26546 9.28548 2.33369 9.39039 2.45515C9.49531 2.5766 9.55425 2.74133 9.55425 2.91309V7.18093L8.27311 5.69139C8.2211 5.63069 8.15922 5.58251 8.09105 5.54963C8.02288 5.51675 7.94975 5.49983 7.8759 5.49983C7.80204 5.49983 7.72892 5.51675 7.66075 5.54963C7.59257 5.58251 7.5307 5.63069 7.47869 5.69139L5.07864 8.47618L3.7975 6.98664C3.74549 6.92594 3.68361 6.87776 3.61544 6.84488C3.54726 6.812 3.47414 6.79507 3.40029 6.79507C3.32643 6.79507 3.25331 6.812 3.18513 6.84488C3.11696 6.87776 3.05508 6.92594 3.00307 6.98664L1.72193 8.47618V2.91309ZM1.72193 11.9798V10.3025L3.40029 8.3596L4.68143 9.84914C4.73344 9.90984 4.79531 9.95802 4.86349 9.9909C4.93166 10.0238 5.00479 10.0407 5.07864 10.0407C5.15249 10.0407 5.22562 10.0238 5.29379 9.9909C5.36197 9.95802 5.42384 9.90984 5.47585 9.84914L7.8759 7.06436L9.55425 9.00723V11.9798C9.55425 12.1516 9.49531 12.3163 9.39039 12.4378C9.28548 12.5592 9.14318 12.6274 8.9948 12.6274H2.28138C2.13301 12.6274 1.99071 12.5592 1.88579 12.4378C1.78087 12.3163 1.72193 12.1516 1.72193 11.9798Z" fill="white"/>
</svg>
