<svg width="13" height="14" viewBox="0 0 13 14" fill="none" xmlns="http://www.w3.org/2000/svg">
<path d="M12.1289 11.7421H1.22191C1.0612 11.7421 0.907079 11.8093 0.793443 11.9289C0.679807 12.0485 0.615967 12.2108 0.615967 12.3799C0.615967 12.5491 0.679807 12.7113 0.793443 12.8309C0.907079 12.9506 1.0612 13.0178 1.22191 13.0178H12.1289C12.2896 13.0178 12.4437 12.9506 12.5573 12.8309C12.671 12.7113 12.7348 12.5491 12.7348 12.3799C12.7348 12.2108 12.671 12.0485 12.5573 11.9289C12.4437 11.8093 12.2896 11.7421 12.1289 11.7421Z" fill="#252525"/>
<path d="M6.67545 0.898926C6.51475 0.898926 6.36062 0.966126 6.24699 1.08574C6.13335 1.20536 6.06951 1.3676 6.06951 1.53676V8.29145L4.07596 6.18659C3.96186 6.06648 3.80711 5.99901 3.64574 5.99901C3.48438 5.99901 3.32963 6.06648 3.21553 6.18659C3.10142 6.3067 3.03732 6.4696 3.03732 6.63945C3.03732 6.80931 3.10142 6.97221 3.21553 7.09232L6.24523 10.2815C6.30156 10.3413 6.36858 10.3887 6.44242 10.4211C6.51626 10.4535 6.59546 10.4702 6.67545 10.4702C6.75544 10.4702 6.83464 10.4535 6.90848 10.4211C6.98232 10.3887 7.04934 10.3413 7.10567 10.2815L10.1354 7.09232C10.1919 7.03285 10.2367 6.96225 10.2673 6.88454C10.2978 6.80684 10.3136 6.72356 10.3136 6.63945C10.3136 6.55535 10.2978 6.47207 10.2673 6.39437C10.2367 6.31666 10.1919 6.24606 10.1354 6.18659C10.0789 6.12712 10.0118 6.07994 9.93799 6.04776C9.86418 6.01557 9.78506 5.99901 9.70516 5.99901C9.62526 5.99901 9.54615 6.01557 9.47233 6.04776C9.39851 6.07994 9.33144 6.12712 9.27494 6.18659L7.28139 8.29145V1.53676C7.28139 1.3676 7.21755 1.20536 7.10392 1.08574C6.99028 0.966126 6.83616 0.898926 6.67545 0.898926Z" fill="#252525"/>
</svg>
