<svg width="13" height="13" viewBox="0 0 13 13" fill="none" xmlns="http://www.w3.org/2000/svg">
<path d="M3.19554 6.49336V9.08757C3.19554 9.25958 3.26875 9.42454 3.39906 9.54617C3.52938 9.6678 3.70612 9.73613 3.89041 9.73613H6.66993C6.76138 9.73662 6.85203 9.72026 6.9367 9.68799C7.02136 9.65571 7.09836 9.60816 7.16329 9.54805L12.229 4.82658C12.6728 4.40665 12.9217 3.84049 12.9217 3.25059C12.9217 2.6607 12.6728 2.09454 12.229 1.67461L11.8329 1.30493C11.3763 0.902671 10.7722 0.678586 10.1443 0.678586C9.51645 0.678586 8.91235 0.902671 8.45577 1.30493L3.39705 6.03289C3.33265 6.09349 3.2817 6.16536 3.24712 6.24438C3.21254 6.3234 3.19501 6.40801 3.19554 6.49336ZM4.58529 6.75927L9.44944 2.21939C9.63759 2.05432 9.8861 1.96242 10.1443 1.96242C10.4025 1.96242 10.6511 2.05432 10.8392 2.21939L11.2283 2.58258C11.4116 2.75507 11.5145 2.98819 11.5145 3.23114C11.5145 3.47409 11.4116 3.7072 11.2283 3.87969L6.36418 8.41956H4.58529V6.75927Z" fill="white"/>
<path d="M12.2289 6.49323C12.0447 6.49323 11.8679 6.56156 11.7376 6.68319C11.6073 6.80481 11.5341 6.96978 11.5341 7.14178V10.3845C11.5341 10.5566 11.4609 10.7215 11.3305 10.8431C11.2002 10.9648 11.0235 11.0331 10.8392 11.0331H2.50065C2.31636 11.0331 2.13961 10.9648 2.0093 10.8431C1.87898 10.7215 1.80577 10.5566 1.80577 10.3845V2.60191C1.80577 2.4299 1.87898 2.26494 2.0093 2.14331C2.13961 2.02169 2.31636 1.95336 2.50065 1.95336H5.97504C6.15934 1.95336 6.33608 1.88503 6.4664 1.7634C6.59671 1.64177 6.66992 1.47681 6.66992 1.3048C6.66992 1.1328 6.59671 0.967834 6.4664 0.846207C6.33608 0.72458 6.15934 0.65625 5.97504 0.65625H2.50065C1.94777 0.65625 1.41754 0.861239 1.02659 1.22612C0.635646 1.591 0.416016 2.08589 0.416016 2.60191V10.3845C0.416016 10.9006 0.635646 11.3955 1.02659 11.7603C1.41754 12.1252 1.94777 12.3302 2.50065 12.3302H10.8392C11.3921 12.3302 11.9223 12.1252 12.3133 11.7603C12.7042 11.3955 12.9238 10.9006 12.9238 10.3845V7.14178C12.9238 6.96978 12.8506 6.80481 12.7203 6.68319C12.59 6.56156 12.4132 6.49323 12.2289 6.49323Z" fill="white"/>
</svg>
