<svg width="11" height="14" viewBox="0 0 11 14" fill="none" xmlns="http://www.w3.org/2000/svg">
<path d="M1.38985 13.3983H3.62693C3.70053 13.3988 3.7735 13.3807 3.84164 13.3449C3.90978 13.3091 3.97175 13.2563 4.02401 13.1897L10.7353 4.55746C10.7877 4.49059 10.8293 4.41102 10.8577 4.32337C10.8861 4.23571 10.9007 4.14168 10.9007 4.04672C10.9007 3.95176 10.8861 3.85773 10.8577 3.77007C10.8293 3.68242 10.7877 3.60285 10.7353 3.53598L8.49818 0.658583C8.44619 0.59116 8.38433 0.537644 8.31618 0.501124C8.24803 0.464603 8.17493 0.445801 8.1011 0.445801C8.02727 0.445801 7.95417 0.464603 7.88602 0.501124C7.81786 0.537644 7.75601 0.59116 7.70402 0.658583L0.992764 9.29078C0.94093 9.358 0.899922 9.43771 0.87209 9.52535C0.844258 9.613 0.83015 9.70685 0.830576 9.80152V12.6789C0.830576 12.8697 0.889499 13.0527 0.994382 13.1876C1.09927 13.3225 1.24152 13.3983 1.38985 13.3983V13.3983ZM1.94912 10.0965L8.1011 2.1836L9.54961 4.04672L3.39763 11.9596H1.94912V10.0965Z" fill="#EC1A25"/>
</svg>
