<svg width="12" height="14" viewBox="0 0 12 14" fill="none" xmlns="http://www.w3.org/2000/svg">
<path d="M9.80608 4.18848C9.80608 3.20894 9.39112 2.26952 8.65249 1.57688C7.91385 0.884238 6.91205 0.495117 5.86746 0.495117C4.82287 0.495117 3.82107 0.884238 3.08244 1.57688C2.3438 2.26952 1.92884 3.20894 1.92884 4.18848V6.14596C1.54578 6.27296 1.21398 6.50795 0.978936 6.81872C0.743892 7.1295 0.617109 7.50084 0.615967 7.88184V11.5752C0.615967 12.065 0.823447 12.5347 1.19276 12.881C1.56208 13.2273 2.06298 13.4219 2.58528 13.4219H9.14965C9.67194 13.4219 10.1728 13.2273 10.5422 12.881C10.9115 12.5347 11.119 12.065 11.119 11.5752V7.88184C11.1192 7.49979 10.993 7.12708 10.7579 6.81508C10.5227 6.50308 10.1902 6.26715 9.80608 6.1398C9.81209 6.10515 9.81209 6.06981 9.80608 6.03516V4.18848ZM3.24171 4.18848C3.24171 3.53545 3.51835 2.90917 4.01078 2.44741C4.5032 1.98565 5.17107 1.72624 5.86746 1.72624C6.56385 1.72624 7.23172 1.98565 7.72415 2.44741C8.21657 2.90917 8.49321 3.53545 8.49321 4.18848V6.03516H3.24171V4.18848ZM9.80608 7.88184V11.5752C9.80608 11.7385 9.73692 11.895 9.61382 12.0105C9.49071 12.1259 9.32374 12.1908 9.14965 12.1908H2.58528C2.41118 12.1908 2.24421 12.1259 2.12111 12.0105C1.998 11.895 1.92884 11.7385 1.92884 11.5752V7.88184C1.92884 7.71858 1.998 7.56201 2.12111 7.44657C2.24421 7.33113 2.41118 7.26628 2.58528 7.26628H9.14965C9.32374 7.26628 9.49071 7.33113 9.61382 7.44657C9.73692 7.56201 9.80608 7.71858 9.80608 7.88184Z" fill="#252525"/>
<path d="M5.86728 8.49735C5.69318 8.49735 5.52622 8.56221 5.40311 8.67765C5.28 8.79309 5.21084 8.94966 5.21084 9.11291V9.72847C5.21084 9.89173 5.28 10.0483 5.40311 10.1637C5.52622 10.2792 5.69318 10.344 5.86728 10.344C6.04138 10.344 6.20835 10.2792 6.33145 10.1637C6.45456 10.0483 6.52372 9.89173 6.52372 9.72847V9.11291C6.52372 8.94966 6.45456 8.79309 6.33145 8.67765C6.20835 8.56221 6.04138 8.49735 5.86728 8.49735Z" fill="#252525"/>
</svg>
