<svg width="15" height="15" viewBox="0 0 15 15" fill="none" xmlns="http://www.w3.org/2000/svg">
<path d="M14.0305 13.1639H1.18993C1.00073 13.1639 0.819284 13.243 0.685502 13.3838C0.55172 13.5247 0.476563 13.7157 0.476562 13.9148C0.476563 14.114 0.55172 14.305 0.685502 14.4458C0.819284 14.5866 1.00073 14.6657 1.18993 14.6657H14.0305C14.2197 14.6657 14.4012 14.5866 14.5349 14.4458C14.6687 14.305 14.7439 14.114 14.7439 13.9148C14.7439 13.7157 14.6687 13.5247 14.5349 13.3838C14.4012 13.243 14.2197 13.1639 14.0305 13.1639Z" fill="#252525"/>
<path d="M7.6103 0.398438C7.4211 0.398438 7.23965 0.477551 7.10587 0.618375C6.97209 0.759199 6.89693 0.950197 6.89693 1.14935V9.10153L4.54996 6.62351C4.41563 6.48211 4.23344 6.40268 4.04347 6.40268C3.8535 6.40268 3.67131 6.48211 3.53698 6.62351C3.40265 6.76491 3.32719 6.95669 3.32719 7.15666C3.32719 7.35663 3.40265 7.54841 3.53698 7.68981L7.10381 11.4444C7.17013 11.5148 7.24902 11.5706 7.33595 11.6088C7.42288 11.6469 7.51613 11.6665 7.6103 11.6665C7.70447 11.6665 7.79771 11.6469 7.88464 11.6088C7.97157 11.5706 8.05047 11.5148 8.11679 11.4444L11.6836 7.68981C11.7501 7.6198 11.8029 7.53668 11.8389 7.4452C11.8749 7.35372 11.8934 7.25568 11.8934 7.15666C11.8934 7.05765 11.8749 6.9596 11.8389 6.86812C11.8029 6.77665 11.7501 6.69353 11.6836 6.62351C11.6171 6.5535 11.5381 6.49796 11.4512 6.46007C11.3643 6.42218 11.2712 6.40268 11.1771 6.40268C11.0831 6.40268 10.9899 6.42218 10.903 6.46007C10.8161 6.49796 10.7371 6.5535 10.6706 6.62351L8.32366 9.10153V1.14935C8.32366 0.950197 8.24851 0.759199 8.11472 0.618375C7.98094 0.477551 7.79949 0.398438 7.6103 0.398438Z" fill="#252525"/>
</svg>
