<svg width="4" height="14" viewBox="0 0 4 14" fill="none" xmlns="http://www.w3.org/2000/svg">
<path d="M2.02983 3.42392C2.81069 3.42392 3.44369 2.79091 3.44369 2.01006C3.44369 1.2292 2.81069 0.596191 2.02983 0.596191C1.24897 0.596191 0.615967 1.2292 0.615967 2.01006C0.615967 2.79091 1.24897 3.42392 2.02983 3.42392Z" fill="black"/>
<path d="M2.02983 8.37245C2.81069 8.37245 3.44369 7.73944 3.44369 6.95858C3.44369 6.17773 2.81069 5.54472 2.02983 5.54472C1.24897 5.54472 0.615967 6.17773 0.615967 6.95858C0.615967 7.73944 1.24897 8.37245 2.02983 8.37245Z" fill="black"/>
<path d="M2.02983 13.321C2.81069 13.321 3.44369 12.688 3.44369 11.9071C3.44369 11.1262 2.81069 10.4932 2.02983 10.4932C1.24897 10.4932 0.615967 11.1262 0.615967 11.9071C0.615967 12.688 1.24897 13.321 2.02983 13.321Z" fill="black"/>
</svg>
