<svg width="14" height="13" viewBox="0 0 14 13" fill="none" xmlns="http://www.w3.org/2000/svg">
<path d="M12.7906 11.4305H1.53359C1.36773 11.4305 1.20866 11.4998 1.09138 11.6233C0.974092 11.7467 0.908203 11.9142 0.908203 12.0888C0.908203 12.2634 0.974092 12.4308 1.09138 12.5543C1.20866 12.6777 1.36773 12.7471 1.53359 12.7471H12.7906C12.9565 12.7471 13.1156 12.6777 13.2328 12.5543C13.3501 12.4308 13.416 12.2634 13.416 12.0888C13.416 11.9142 13.3501 11.7467 13.2328 11.6233C13.1156 11.4998 12.9565 11.4305 12.7906 11.4305Z" fill="#252525"/>
<path d="M7.16218 0.239258C6.99632 0.239258 6.83725 0.308615 6.71996 0.432072C6.60268 0.555529 6.53679 0.722972 6.53679 0.897567V7.86906L4.47925 5.69664C4.36149 5.57268 4.20177 5.50304 4.03523 5.50304C3.86868 5.50304 3.70896 5.57268 3.5912 5.69664C3.47344 5.8206 3.40728 5.98873 3.40728 6.16404C3.40728 6.33935 3.47344 6.50748 3.5912 6.63144L6.71815 9.92298C6.77629 9.98469 6.84546 10.0337 6.92167 10.0671C6.99788 10.1005 7.07962 10.1177 7.16218 10.1177C7.24474 10.1177 7.32648 10.1005 7.40269 10.0671C7.4789 10.0337 7.54807 9.98469 7.60621 9.92298L10.7332 6.63144C10.7915 6.57006 10.8377 6.49719 10.8693 6.41699C10.9008 6.3368 10.9171 6.25084 10.9171 6.16404C10.9171 6.07724 10.9008 5.99128 10.8693 5.91108C10.8377 5.83089 10.7915 5.75802 10.7332 5.69664C10.6748 5.63526 10.6056 5.58657 10.5294 5.55335C10.4533 5.52013 10.3716 5.50304 10.2891 5.50304C10.2067 5.50304 10.125 5.52013 10.0488 5.55335C9.97264 5.58657 9.90342 5.63526 9.84511 5.69664L7.78757 7.86906V0.897567C7.78757 0.722972 7.72168 0.555529 7.6044 0.432072C7.48711 0.308615 7.32804 0.239258 7.16218 0.239258Z" fill="#252525"/>
</svg>
