<svg width="13" height="12" viewBox="0 0 13 12" fill="none" xmlns="http://www.w3.org/2000/svg">
<path d="M3.30905 5.95881V8.47234C3.30905 8.639 3.37998 8.79883 3.50624 8.91668C3.63251 9.03452 3.80375 9.10073 3.98232 9.10073H6.67539C6.764 9.10121 6.85183 9.08535 6.93386 9.05408C7.01589 9.02281 7.0905 8.97674 7.15341 8.9185L12.0615 4.34386C12.4916 3.93699 12.7327 3.38843 12.7327 2.81689C12.7327 2.24534 12.4916 1.69678 12.0615 1.28991L11.6778 0.931734C11.2354 0.541981 10.6501 0.324864 10.0417 0.324864C9.43339 0.324864 8.84807 0.541981 8.40569 0.931734L3.5043 5.51265C3.4419 5.57137 3.39253 5.64101 3.35902 5.71757C3.32552 5.79413 3.30854 5.87611 3.30905 5.95881ZM4.65559 6.21644L9.36847 1.81776C9.55076 1.65781 9.79154 1.56877 10.0417 1.56877C10.2919 1.56877 10.5327 1.65781 10.715 1.81776L11.092 2.16965C11.2696 2.33678 11.3693 2.56264 11.3693 2.79803C11.3693 3.03343 11.2696 3.25929 11.092 3.42642L6.37915 7.82511H4.65559V6.21644Z" fill="black"/>
<path d="M12.0615 5.95868C11.883 5.95868 11.7117 6.02488 11.5855 6.14273C11.4592 6.26057 11.3883 6.42041 11.3883 6.58706V9.72898C11.3883 9.89564 11.3173 10.0555 11.1911 10.1733C11.0648 10.2912 10.8936 10.3574 10.715 10.3574H2.63577C2.45721 10.3574 2.28596 10.2912 2.1597 10.1733C2.03344 10.0555 1.9625 9.89564 1.9625 9.72898V2.18837C1.9625 2.02172 2.03344 1.86189 2.1597 1.74404C2.28596 1.6262 2.45721 1.55999 2.63577 1.55999H6.00212C6.18068 1.55999 6.35193 1.49379 6.47819 1.37594C6.60445 1.2581 6.67538 1.09826 6.67538 0.931607C6.67538 0.764949 6.60445 0.605117 6.47819 0.487272C6.35193 0.369427 6.18068 0.303223 6.00212 0.303223H2.63577C2.10009 0.303223 1.58634 0.501836 1.20755 0.855371C0.828767 1.20891 0.615967 1.6884 0.615967 2.18837V9.72898C0.615967 10.229 0.828767 10.7085 1.20755 11.062C1.58634 11.4155 2.10009 11.6141 2.63577 11.6141H10.715C11.2507 11.6141 11.7644 11.4155 12.1432 11.062C12.522 10.7085 12.7348 10.229 12.7348 9.72898V6.58706C12.7348 6.42041 12.6639 6.26057 12.5376 6.14273C12.4113 6.02488 12.2401 5.95868 12.0615 5.95868Z" fill="black"/>
</svg>
