<svg width="13" height="12" viewBox="0 0 13 12" fill="none" xmlns="http://www.w3.org/2000/svg">
<path d="M2.93507 5.56219V8.02814C2.93507 8.19164 3.00466 8.34845 3.12853 8.46406C3.25241 8.57968 3.42041 8.64463 3.59559 8.64463H6.23769C6.32462 8.6451 6.41079 8.62955 6.49127 8.59887C6.57174 8.56819 6.64494 8.52298 6.70666 8.46585L11.5219 3.97781C11.9438 3.57865 12.1804 3.04048 12.1804 2.47975C12.1804 1.91902 11.9438 1.38085 11.5219 0.981683L11.1454 0.630284C10.7114 0.24791 10.1371 0.0349036 9.54031 0.0349036C8.94348 0.0349036 8.36924 0.24791 7.93523 0.630284L3.12662 5.12448C3.0654 5.18209 3.01697 5.2504 2.9841 5.32552C2.95123 5.40063 2.93457 5.48106 2.93507 5.56219ZM4.25612 5.81495L8.87978 1.49953C9.05863 1.34262 9.29485 1.25526 9.54031 1.25526C9.78577 1.25526 10.022 1.34262 10.2008 1.49953L10.5707 1.84477C10.745 2.00873 10.8428 2.23031 10.8428 2.46125C10.8428 2.69219 10.745 2.91378 10.5707 3.07774L5.94706 7.39316H4.25612V5.81495Z" fill="white"/>
<path d="M11.5219 5.56206C11.3467 5.56206 11.1787 5.62702 11.0548 5.74263C10.9309 5.85824 10.8613 6.01505 10.8613 6.17855V9.26099C10.8613 9.4245 10.7918 9.5813 10.6679 9.69692C10.544 9.81253 10.376 9.87748 10.2008 9.87748H2.27454C2.09936 9.87748 1.93135 9.81253 1.80748 9.69692C1.68361 9.5813 1.61402 9.4245 1.61402 9.26099V1.86314C1.61402 1.69963 1.68361 1.54283 1.80748 1.42721C1.93135 1.3116 2.09936 1.24665 2.27454 1.24665H5.57716C5.75234 1.24665 5.92035 1.1817 6.04422 1.06608C6.16809 0.950469 6.23768 0.793663 6.23768 0.63016C6.23768 0.466657 6.16809 0.309851 6.04422 0.194237C5.92035 0.0786231 5.75234 0.0136719 5.57716 0.0136719H2.27454C1.74899 0.0136719 1.24497 0.208526 0.873357 0.555367C0.501741 0.902209 0.292969 1.37263 0.292969 1.86314V9.26099C0.292969 9.7515 0.501741 10.2219 0.873357 10.5688C1.24497 10.9156 1.74899 11.1105 2.27454 11.1105H10.2008C10.7264 11.1105 11.2304 10.9156 11.602 10.5688C11.9736 10.2219 12.1824 9.7515 12.1824 9.26099V6.17855C12.1824 6.01505 12.1128 5.85824 11.9889 5.74263C11.8651 5.62702 11.6971 5.56206 11.5219 5.56206Z" fill="white"/>
</svg>
