<svg width="16" height="16" viewBox="0 0 16 16" fill="none" xmlns="http://www.w3.org/2000/svg">
<path d="M14.8155 13.6589H1.30711C1.10807 13.6589 0.917188 13.7422 0.776448 13.8903C0.635708 14.0385 0.556641 14.2394 0.556641 14.4489C0.556641 14.6584 0.635708 14.8593 0.776448 15.0075C0.917188 15.1556 1.10807 15.2389 1.30711 15.2389H14.8155C15.0146 15.2389 15.2055 15.1556 15.3462 15.0075C15.4869 14.8593 15.566 14.6584 15.566 14.4489C15.566 14.2394 15.4869 14.0385 15.3462 13.8903C15.2055 13.7422 15.0146 13.6589 14.8155 13.6589Z" fill="#252525"/>
<path d="M8.06141 0.229492C7.86238 0.229492 7.67149 0.312721 7.53075 0.460869C7.39001 0.609018 7.31094 0.80995 7.31094 1.01946V9.38526L4.8419 6.77835C4.70059 6.6296 4.50892 6.54603 4.30907 6.54603C4.10922 6.54603 3.91755 6.6296 3.77624 6.77835C3.63492 6.92711 3.55553 7.12886 3.55553 7.33923C3.55553 7.5496 3.63492 7.75136 3.77624 7.90011L7.52858 11.85C7.59835 11.924 7.68135 11.9828 7.7728 12.0229C7.86425 12.063 7.96234 12.0836 8.06141 12.0836C8.16048 12.0836 8.25857 12.063 8.35003 12.0229C8.44148 11.9828 8.52448 11.924 8.59425 11.85L12.3466 7.90011C12.4166 7.82645 12.4721 7.73901 12.5099 7.64278C12.5478 7.54654 12.5673 7.4434 12.5673 7.33923C12.5673 7.23507 12.5478 7.13192 12.5099 7.03568C12.4721 6.93945 12.4166 6.85201 12.3466 6.77835C12.2766 6.70469 12.1935 6.64627 12.1021 6.60641C12.0107 6.56654 11.9127 6.54603 11.8138 6.54603C11.7148 6.54603 11.6168 6.56654 11.5254 6.60641C11.434 6.64627 11.3509 6.70469 11.2809 6.77835L8.81188 9.38526V1.01946C8.81188 0.80995 8.73281 0.609018 8.59207 0.460869C8.45133 0.312721 8.26045 0.229492 8.06141 0.229492Z" fill="#252525"/>
</svg>
